IOTA-singleline.ufo
<glyph name="exclam" format="2">
	<advance width="237"/>
	<unicode hex="0021"/>
	<outline>
		<contour>
			<point x="25" y="790" type="move"/>
			<point x="61" y="754"/>
			<point x="87" y="704"/>
			<point x="97" y="647" type="curve" smooth="yes"/>
			<point x="117" y="532"/>
			<point x="62" y="402"/>
			<point x="111" y="287" type="curve" smooth="yes"/>
			<point x="123" y="258"/>
			<point x="147" y="237"/>
			<point x="169" y="216" type="curve"/>
		</contour>
		<contour>
			<point x="61" y="124" type="move"/>
			<point x="169" y="124" type="line"/>
			<point x="183" y="66"/>
			<point x="154" y="9"/>
			<point x="97" y="-20" type="curve"/>
		</contour>
	</outline>
</glyph>
<glyph name="quotedbl" format="2">
	<advance width="394"/>
	<unicode hex="0022"/>
	<outline>
		<contour>
			<point x="15" y="790" type="move"/>
			<point x="123" y="790" type="line"/>
			<point x="137" y="680"/>
			<point x="116" y="579"/>
			<point x="51" y="500" type="curve"/>
		</contour>
		<contour>
			<point x="217" y="790" type="move"/>
			<point x="325" y="790" type="line"/>
			<point x="339" y="680"/>
			<point x="318" y="579"/>
			<point x="253" y="500" type="curve"/>
		</contour>
	</outline>
</glyph>
<glyph name="numbersign" format="2">
	<advance width="694"/>
	<unicode hex="0023"/>
	<outline>
		<contour>
			<point x="247" y="700" type="move"/>
			<point x="132" y="0" type="line"/>
		</contour>
		<contour>
			<point x="537" y="700" type="move"/>
			<point x="421" y="0" type="line"/>
		</contour>
		<contour>
			<point x="91" y="498" type="move"/>
			<point x="629" y="498" type="line"/>
		</contour>
		<contour>
			<point x="45" y="208" type="move"/>
			<point x="583" y="208" type="line"/>
		</contour>
	</outline>
</glyph>
<glyph name="dollar" format="2">
	<advance width="671"/>
	<unicode hex="0024"/>
	<outline>
		<contour>
			<point x="595" y="596" type="move"/>
			<point x="518" y="657"/>
			<point x="420" y="699"/>
			<point x="315" y="700" type="curve" smooth="yes"/>
			<point x="183" y="701"/>
			<point x="60" y="622"/>
			<point x="70" y="503" type="curve" smooth="yes"/>
			<point x="79" y="399"/>
			<point x="203" y="361"/>
			<point x="315" y="349" type="curve" smooth="yes"/>
			<point x="455" y="334"/>
			<point x="615" y="316"/>
			<point x="630" y="188" type="curve" smooth="yes"/>
			<point x="646" y="50"/>
			<point x="493" y="-24"/>
			<point x="315" y="0" type="curve" smooth="yes"/>
			<point x="209" y="14"/>
			<point x="119" y="63"/>
			<point x="35" y="140" type="curve"/>
		</contour>
		<contour>
			<point x="350" y="805" type="move"/>
			<point x="350" y="-147" type="line"/>
		</contour>
	</outline>
</glyph>
<glyph name="percent" format="2">
	<advance width="545"/>
	<unicode hex="0025"/>
	<outline>
		<contour>
			<point x="45" y="0" type="move"/>
			<point x="495" y="700" type="line"/>
		</contour>
		<contour>
			<point x="154" y="700" type="curve" smooth="yes"/>
			<point x="85" y="700"/>
			<point x="45" y="626"/>
			<point x="45" y="545" type="curve" smooth="yes"/>
			<point x="45" y="467"/>
			<point x="85" y="389"/>
			<point x="154" y="389" type="curve" smooth="yes"/>
			<point x="226" y="389"/>
			<point x="263" y="467"/>
			<point x="263" y="545" type="curve" smooth="yes"/>
			<point x="263" y="626"/>
			<point x="226" y="700"/>
		</contour>
		<contour>
			<point x="386" y="311" type="curve" smooth="yes"/>
			<point x="317" y="311"/>
			<point x="277" y="237"/>
			<point x="277" y="156" type="curve" smooth="yes"/>
			<point x="277" y="78"/>
			<point x="317" y="0"/>
			<point x="386" y="0" type="curve" smooth="yes"/>
			<point x="458" y="0"/>
			<point x="495" y="78"/>
			<point x="495" y="156" type="curve" smooth="yes"/>
			<point x="495" y="237"/>
			<point x="458" y="311"/>
		</contour>
	</outline>
</glyph>
<glyph name="ampersand" format="2">
	<advance width="720"/>
	<unicode hex="0026"/>
	<outline>
		<contour>
			<point x="315" y="385" type="move"/>
			<point x="203" y="385"/>
			<point x="70" y="434"/>
			<point x="70" y="532" type="curve" smooth="yes"/>
			<point x="70" y="644"/>
			<point x="189" y="700"/>
			<point x="315" y="700" type="curve" smooth="yes"/>
			<point x="447" y="700"/>
			<point x="550" y="644"/>
			<point x="550" y="540" type="curve" smooth="yes"/>
			<point x="550" y="445"/>
			<point x="428" y="405"/>
			<point x="315" y="385" type="curve" smooth="yes"/>
			<point x="189" y="363"/>
			<point x="35" y="319"/>
			<point x="35" y="189" type="curve" smooth="yes"/>
			<point x="35" y="77"/>
			<point x="147" y="0"/>
			<point x="273" y="0" type="curve" smooth="yes"/>
			<point x="434" y="0"/>
			<point x="555" y="89"/>
			<point x="575" y="260" type="curve"/>
			<point x="575" y="89"/>
			<point x="621" y="0"/>
			<point x="715" y="0" type="curve"/>
		</contour>
	</outline>
</glyph>
<glyph name="quotesingle" format="2">
	<advance width="192"/>
	<unicode hex="0027"/>
	<outline>
		<contour>
			<point x="15" y="790" type="move"/>
			<point x="123" y="790" type="line"/>
			<point x="137" y="680"/>
			<point x="116" y="579"/>
			<point x="51" y="500" type="curve"/>
		</contour>
	</outline>
</glyph>
<glyph name="parenleft" format="2">
	<advance width="359"/>
	<unicode hex="0028"/>
	<outline>
		<contour>
			<point x="259" y="790" type="move"/>
			<point x="144" y="632"/>
			<point x="80" y="446"/>
			<point x="80" y="246" type="curve" smooth="yes"/>
			<point x="80" y="53"/>
			<point x="144" y="-133"/>
			<point x="259" y="-290" type="curve"/>
		</contour>
	</outline>
</glyph>
<glyph name="parenright" format="2">
	<advance width="359"/>
	<unicode hex="0029"/>
	<outline>
		<contour>
			<point x="100" y="790" type="move"/>
			<point x="215" y="632"/>
			<point x="279" y="446"/>
			<point x="279" y="246" type="curve" smooth="yes"/>
			<point x="279" y="53"/>
			<point x="215" y="-133"/>
			<point x="100" y="-290" type="curve"/>
		</contour>
	</outline>
</glyph>
<glyph name="asterisk" format="2">
	<advance width="589"/>
	<unicode hex="002A"/>
	<outline>
		<contour>
			<point x="65" y="719" type="move"/>
			<point x="186" y="597"/>
			<point x="372" y="569"/>
			<point x="529" y="647" type="curve"/>
			<point x="101" y="362" type="line"/>
			<point x="315" y="790" type="line"/>
			<point x="301" y="612"/>
			<point x="351" y="433"/>
			<point x="458" y="290" type="curve"/>
		</contour>
	</outline>
</glyph>
<glyph name="plus" format="2">
	<advance width="528"/>
	<unicode hex="002B"/>
	<outline>
		<contour>
			<point x="259" y="464" type="move"/>
			<point x="259" y="36" type="line"/>
		</contour>
		<contour>
			<point x="45" y="250" type="move"/>
			<point x="473" y="250" type="line"/>
		</contour>
	</outline>
</glyph>
<glyph name="comma" format="2">
	<advance width="242"/>
	<unicode hex="002C"/>
	<outline>
		<contour>
			<point x="65" y="47" type="move"/>
			<point x="173" y="47" type="line"/>
			<point x="187" y="-63"/>
			<point x="166" y="-164"/>
			<point x="101" y="-243" type="curve"/>
		</contour>
	</outline>
</glyph>
<glyph name="hyphen" format="2">
	<advance width="370"/>
	<unicode hex="002D"/>
	<outline>
		<contour>
			<point x="60" y="265" type="move"/>
			<point x="310" y="265" type="line"/>
		</contour>
	</outline>
</glyph>
<glyph name="period" format="2">
	<advance width="261"/>
	<unicode hex="002E"/>
	<outline>
		<contour>
			<point x="65" y="52" type="move"/>
			<point x="173" y="52" type="line"/>
			<point x="187" y="-6"/>
			<point x="158" y="-63"/>
			<point x="101" y="-92" type="curve"/>
		</contour>
	</outline>
</glyph>
<glyph name="slash" format="2">
	<advance width="348"/>
	<unicode hex="002F"/>
	<outline>
		<contour>
			<point x="283" y="790" type="move"/>
			<point x="85" y="-200" type="line"/>
		</contour>
	</outline>
</glyph>
<glyph name="zero" format="2">
	<advance width="621"/>
	<unicode hex="0030"/>
	<outline>
		<contour>
			<point x="310" y="700" type="curve"/>
			<point x="156" y="700"/>
			<point x="65" y="533"/>
			<point x="65" y="351" type="curve" smooth="yes"/>
			<point x="65" y="175"/>
			<point x="156" y="0"/>
			<point x="310" y="0" type="curve" smooth="yes"/>
			<point x="472" y="0"/>
			<point x="556" y="175"/>
			<point x="556" y="351" type="curve" smooth="yes"/>
			<point x="556" y="533"/>
			<point x="472" y="700"/>
		</contour>
	</outline>
</glyph>
<glyph name="one" format="2">
	<advance width="435"/>
	<unicode hex="0031"/>
	<outline>
		<contour>
			<point x="40" y="490" type="move"/>
			<point x="250" y="700" type="line"/>
			<point x="285" y="665"/>
			<point x="309" y="615"/>
			<point x="320" y="560" type="curve" smooth="yes"/>
			<point x="353" y="399"/>
			<point x="258" y="224"/>
			<point x="334" y="70" type="curve" smooth="yes"/>
			<point x="345" y="47"/>
			<point x="369" y="21"/>
			<point x="390" y="0" type="curve"/>
			<point x="110" y="0" type="line"/>
		</contour>
	</outline>
</glyph>
<glyph name="two" format="2">
	<advance width="620"/>
	<unicode hex="0032"/>
	<outline>
		<contour>
			<point x="50" y="560" type="move"/>
			<point x="99" y="651"/>
			<point x="190" y="700"/>
			<point x="295" y="700" type="curve" smooth="yes"/>
			<point x="400" y="700"/>
			<point x="505" y="630"/>
			<point x="505" y="525" type="curve" smooth="yes"/>
			<point x="505" y="413"/>
			<point x="393" y="351"/>
			<point x="295" y="280" type="curve" smooth="yes"/>
			<point x="193" y="206"/>
			<point x="106" y="112"/>
			<point x="50" y="0" type="curve"/>
			<point x="435" y="0" type="line" smooth="yes"/>
			<point x="505" y="0"/>
			<point x="568" y="70"/>
			<point x="575" y="140" type="curve"/>
		</contour>
	</outline>
</glyph>
<glyph name="three" format="2">
	<advance width="555"/>
	<unicode hex="0033"/>
	<outline>
		<contour>
			<point x="45" y="595" type="move"/>
			<point x="101" y="658"/>
			<point x="171" y="695"/>
			<point x="255" y="700" type="curve" smooth="yes"/>
			<point x="360" y="706"/>
			<point x="461" y="658"/>
			<point x="465" y="560" type="curve" smooth="yes"/>
			<point x="471" y="427"/>
			<point x="304" y="385"/>
			<point x="150" y="385" type="curve"/>
			<point x="325" y="385"/>
			<point x="500" y="329"/>
			<point x="500" y="175" type="curve" smooth="yes"/>
			<point x="500" y="77"/>
			<point x="395" y="0"/>
			<point x="290" y="0" type="curve" smooth="yes"/>
			<point x="199" y="0"/>
			<point x="108" y="35"/>
			<point x="45" y="105" type="curve"/>
		</contour>
	</outline>
</glyph>
<glyph name="four" format="2">
	<advance width="556"/>
	<unicode hex="0034"/>
	<outline>
		<contour>
			<point x="180" y="700" type="move"/>
			<point x="40" y="210" type="line"/>
			<point x="460" y="210" type="line"/>
		</contour>
		<contour>
			<point x="404" y="350" type="move"/>
			<point x="439" y="315"/>
			<point x="460" y="266"/>
			<point x="460" y="210" type="curve" smooth="yes"/>
			<point x="460" y="168"/>
			<point x="447" y="119"/>
			<point x="460" y="70" type="curve" smooth="yes"/>
			<point x="468" y="40"/>
			<point x="488" y="21"/>
			<point x="516" y="0" type="curve"/>
		</contour>
	</outline>
</glyph>
<glyph name="five" format="2">
	<advance width="590"/>
	<unicode hex="0035"/>
	<outline>
		<contour>
			<point x="500" y="700" type="move"/>
			<point x="45" y="700" type="line"/>
			<point x="45" y="385" type="line"/>
			<point x="115" y="441"/>
			<point x="206" y="463"/>
			<point x="290" y="455" type="curve" smooth="yes"/>
			<point x="429" y="442"/>
			<point x="541" y="343"/>
			<point x="535" y="210" type="curve" smooth="yes"/>
			<point x="530" y="91"/>
			<point x="416" y="0"/>
			<point x="290" y="0" type="curve" smooth="yes"/>
			<point x="199" y="0"/>
			<point x="108" y="35"/>
			<point x="45" y="105" type="curve"/>
		</contour>
	</outline>
</glyph>
<glyph name="six" format="2">
	<advance width="572"/>
	<unicode hex="0036"/>
	<outline>
		<contour>
			<point x="485" y="630" type="move"/>
			<point x="436" y="693"/>
			<point x="353" y="718"/>
			<point x="275" y="700" type="curve" smooth="yes"/>
			<point x="119" y="665"/>
			<point x="65" y="483"/>
			<point x="65" y="315" type="curve" smooth="yes"/>
			<point x="65" y="154"/>
			<point x="163" y="0"/>
			<point x="310" y="0" type="curve" smooth="yes"/>
			<point x="443" y="0"/>
			<point x="538" y="119"/>
			<point x="520" y="245" type="curve" smooth="yes"/>
			<point x="505" y="349"/>
			<point x="415" y="420"/>
			<point x="310" y="420" type="curve" smooth="yes"/>
			<point x="198" y="420"/>
			<point x="100" y="350"/>
			<point x="72" y="245" type="curve"/>
		</contour>
	</outline>
</glyph>
<glyph name="seven" format="2">
	<advance width="550"/>
	<unicode hex="0037"/>
	<outline>
		<contour>
			<point x="45" y="700" type="move"/>
			<point x="500" y="700" type="line"/>
			<point x="472" y="574"/>
			<point x="406" y="456"/>
			<point x="325" y="350" type="curve" smooth="yes"/>
			<point x="250" y="252"/>
			<point x="206" y="126"/>
			<point x="220" y="0" type="curve"/>
		</contour>
		<contour>
			<point x="115" y="350" type="move"/>
			<point x="465" y="350" type="line"/>
		</contour>
	</outline>
</glyph>
<glyph name="eight" format="2">
	<advance width="671"/>
	<unicode hex="0038"/>
	<outline>
		<contour>
			<point x="336" y="700" type="curve" smooth="yes"/>
			<point x="210" y="700"/>
			<point x="81" y="636"/>
			<point x="91" y="525" type="curve" smooth="yes"/>
			<point x="100" y="427"/>
			<point x="224" y="385"/>
			<point x="336" y="385" type="curve" smooth="yes"/>
			<point x="455" y="385"/>
			<point x="574" y="427"/>
			<point x="581" y="525" type="curve" smooth="yes"/>
			<point x="589" y="638"/>
			<point x="469" y="700"/>
		</contour>
		<contour>
			<point x="336" y="385" type="curve" smooth="yes"/>
			<point x="203" y="385"/>
			<point x="67" y="337"/>
			<point x="56" y="210" type="curve" smooth="yes"/>
			<point x="45" y="84"/>
			<point x="189" y="0"/>
			<point x="336" y="0" type="curve" smooth="yes"/>
			<point x="483" y="0"/>
			<point x="622" y="77"/>
			<point x="616" y="203" type="curve" smooth="yes"/>
			<point x="610" y="329"/>
			<point x="476" y="385"/>
		</contour>
	</outline>
</glyph>
<glyph name="nine" format="2">
	<advance width="607"/>
	<unicode hex="0039"/>
	<outline>
		<contour>
			<point x="87" y="70" type="move"/>
			<point x="135" y="7"/>
			<point x="220" y="-11"/>
			<point x="296" y="0" type="curve" smooth="yes"/>
			<point x="449" y="22"/>
			<point x="542" y="181"/>
			<point x="542" y="349" type="curve" smooth="yes"/>
			<point x="542" y="519"/>
			<point x="451" y="685"/>
			<point x="296" y="700" type="curve" smooth="yes"/>
			<point x="150" y="714"/>
			<point x="32" y="596"/>
			<point x="52" y="455" type="curve" smooth="yes"/>
			<point x="68" y="343"/>
			<point x="178" y="268"/>
			<point x="296" y="279" type="curve" smooth="yes"/>
			<point x="401" y="289"/>
			<point x="488" y="357"/>
			<point x="530" y="455" type="curve"/>
		</contour>
	</outline>
</glyph>
<glyph name="colon" format="2">
	<advance width="236"/>
	<unicode hex="003A"/>
	<outline>
		<contour>
			<point x="35" y="500" type="move"/>
			<point x="143" y="500" type="line"/>
			<point x="157" y="442"/>
			<point x="128" y="385"/>
			<point x="71" y="356" type="curve"/>
		</contour>
		<contour>
			<point x="35" y="192" type="move"/>
			<point x="143" y="192" type="line"/>
			<point x="157" y="134"/>
			<point x="128" y="77"/>
			<point x="71" y="48" type="curve"/>
		</contour>
	</outline>
</glyph>
<glyph name="semicolon" format="2">
	<advance width="257"/>
	<unicode hex="003B"/>
	<outline>
		<contour>
			<point x="65" y="500" type="move"/>
			<point x="173" y="500" type="line"/>
			<point x="187" y="442"/>
			<point x="158" y="385"/>
			<point x="101" y="356" type="curve"/>
		</contour>
		<contour>
			<point x="65" y="47" type="move"/>
			<point x="173" y="47" type="line"/>
			<point x="187" y="-63"/>
			<point x="166" y="-164"/>
			<point x="101" y="-243" type="curve"/>
		</contour>
	</outline>
</glyph>
<glyph name="less" format="2">
	<advance width="518"/>
	<unicode hex="003C"/>
	<outline>
		<contour>
			<point x="463" y="71" type="move"/>
			<point x="35" y="286" type="line"/>
			<point x="463" y="500" type="line"/>
		</contour>
	</outline>
</glyph>
<glyph name="equal" format="2">
	<advance width="558"/>
	<unicode hex="003D"/>
	<outline>
		<contour>
			<point x="55" y="428" type="move"/>
			<point x="483" y="428" type="line"/>
		</contour>
		<contour>
			<point x="55" y="143" type="move"/>
			<point x="483" y="143" type="line"/>
		</contour>
	</outline>
</glyph>
<glyph name="greater" format="2">
	<advance width="518"/>
	<unicode hex="003E"/>
	<outline>
		<contour>
			<point x="55" y="500" type="move"/>
			<point x="483" y="286" type="line"/>
			<point x="55" y="71" type="line"/>
		</contour>
	</outline>
</glyph>
<glyph name="question" format="2">
	<advance width="530"/>
	<unicode hex="003F"/>
	<outline>
		<contour>
			<point x="15" y="647" type="move"/>
			<point x="58" y="733"/>
			<point x="144" y="790"/>
			<point x="241" y="790" type="curve" smooth="yes"/>
			<point x="396" y="790"/>
			<point x="511" y="660"/>
			<point x="446" y="539" type="curve" smooth="yes"/>
			<point x="388" y="431"/>
			<point x="136" y="453"/>
			<point x="159" y="287" type="curve" smooth="yes"/>
			<point x="164" y="251"/>
			<point x="195" y="223"/>
			<point x="231" y="216" type="curve"/>
		</contour>
		<contour>
			<point x="159" y="124" type="move"/>
			<point x="266" y="124" type="line"/>
			<point x="281" y="66"/>
			<point x="252" y="9"/>
			<point x="195" y="-20" type="curve"/>
		</contour>
	</outline>
</glyph>
<glyph name="at" format="2">
	<advance width="826"/>
	<unicode hex="0040"/>
	<outline>
		<contour>
			<point x="235" y="503" type="move"/>
			<point x="286" y="547"/>
			<point x="351" y="575"/>
			<point x="416" y="575" type="curve" smooth="yes"/>
			<point x="509" y="575"/>
			<point x="603" y="517"/>
			<point x="632" y="431" type="curve" smooth="yes"/>
			<point x="664" y="337"/>
			<point x="628" y="236"/>
			<point x="646" y="143" type="curve" smooth="yes"/>
			<point x="653" y="107"/>
			<point x="674" y="70"/>
			<point x="704" y="70" type="curve" smooth="yes"/>
			<point x="767" y="70"/>
			<point x="776" y="215"/>
			<point x="776" y="329" type="curve" smooth="yes"/>
			<point x="776" y="541"/>
			<point x="618" y="700"/>
			<point x="426" y="700" type="curve" smooth="yes"/>
			<point x="214" y="700"/>
			<point x="45" y="541"/>
			<point x="45" y="320" type="curve" smooth="yes"/>
			<point x="45" y="90"/>
			<point x="194" y="-55"/>
			<point x="411" y="-55" type="curve" smooth="yes"/>
			<point x="495" y="-55"/>
			<point x="571" y="-26"/>
			<point x="635" y="16" type="curve"/>
		</contour>
		<contour>
			<point x="644" y="287" type="move"/>
			<point x="579" y="330"/>
			<point x="495" y="358"/>
			<point x="416" y="359" type="curve" smooth="yes"/>
			<point x="307" y="360"/>
			<point x="199" y="309"/>
			<point x="199" y="215" type="curve" smooth="yes"/>
			<point x="199" y="114"/>
			<point x="307" y="70"/>
			<point x="416" y="70" type="curve" smooth="yes"/>
			<point x="495" y="70"/>
			<point x="574" y="92"/>
			<point x="646" y="143" type="curve"/>
		</contour>
	</outline>
</glyph>
<glyph name="A" format="2">
	<advance width="630"/>
	<unicode hex="0041"/>
	<outline>
		<contour>
			<point x="35" y="0" type="move"/>
			<point x="56" y="21"/>
			<point x="78" y="42"/>
			<point x="91" y="70" type="curve" smooth="yes"/>
			<point x="152" y="203"/>
			<point x="82" y="350"/>
			<point x="105" y="490" type="curve" smooth="yes"/>
			<point x="124" y="608"/>
			<point x="203" y="700"/>
			<point x="315" y="700" type="curve" smooth="yes"/>
			<point x="420" y="700"/>
			<point x="508" y="610"/>
			<point x="525" y="490" type="curve" smooth="yes"/>
			<point x="545" y="350"/>
			<point x="472" y="203"/>
			<point x="539" y="70" type="curve" smooth="yes"/>
			<point x="552" y="44"/>
			<point x="567" y="21"/>
			<point x="595" y="0" type="curve"/>
		</contour>
		<contour>
			<point x="112" y="280" type="move"/>
			<point x="515" y="280" type="line"/>
		</contour>
	</outline>
</glyph>
<glyph name="B" format="2">
	<advance width="582"/>
	<unicode hex="0042"/>
	<outline>
		<contour>
			<point x="55" y="700" type="move"/>
			<point x="97" y="700"/>
			<point x="125" y="665"/>
			<point x="125" y="631" type="curve"/>
			<point x="125" y="70" type="line"/>
			<point x="118" y="36"/>
			<point x="90" y="7"/>
			<point x="55" y="0" type="curve"/>
		</contour>
		<contour>
			<point x="125" y="631" type="move"/>
			<point x="161" y="669"/>
			<point x="216" y="696"/>
			<point x="265" y="700" type="curve" smooth="yes"/>
			<point x="377" y="710"/>
			<point x="483" y="644"/>
			<point x="489" y="539" type="curve" smooth="yes"/>
			<point x="494" y="449"/>
			<point x="426" y="385"/>
			<point x="335" y="385" type="curve"/>
			<point x="125" y="385" type="line"/>
			<point x="335" y="385" type="line" smooth="yes"/>
			<point x="447" y="385"/>
			<point x="540" y="308"/>
			<point x="545" y="210" type="curve" smooth="yes"/>
			<point x="551" y="98"/>
			<point x="463" y="14"/>
			<point x="349" y="0" type="curve" smooth="yes"/>
			<point x="272" y="-9"/>
			<point x="188" y="14"/>
			<point x="125" y="70" type="curve"/>
		</contour>
	</outline>
</glyph>
<glyph name="C" format="2">
	<advance width="587"/>
	<unicode hex="0043"/>
	<outline>
		<contour>
			<point x="550" y="630" type="move"/>
			<point x="494" y="686"/>
			<point x="417" y="708"/>
			<point x="340" y="700" type="curve" smooth="yes"/>
			<point x="174" y="683"/>
			<point x="60" y="525"/>
			<point x="60" y="350" type="curve" smooth="yes"/>
			<point x="60" y="182"/>
			<point x="172" y="15"/>
			<point x="340" y="0" type="curve" smooth="yes"/>
			<point x="417" y="-7"/>
			<point x="494" y="21"/>
			<point x="550" y="70" type="curve"/>
		</contour>
	</outline>
</glyph>
<glyph name="D" format="2">
	<advance width="674"/>
	<unicode hex="0044"/>
	<outline>
		<contour>
			<point x="55" y="700" type="move"/>
			<point x="90" y="672"/>
			<point x="115" y="637"/>
			<point x="125" y="595" type="curve"/>
			<point x="125" y="105" type="line"/>
			<point x="125" y="56"/>
			<point x="97" y="22"/>
			<point x="55" y="0" type="curve"/>
		</contour>
		<contour>
			<point x="125" y="595" type="move"/>
			<point x="181" y="672"/>
			<point x="279" y="714"/>
			<point x="370" y="700" type="curve" smooth="yes"/>
			<point x="524" y="677"/>
			<point x="614" y="511"/>
			<point x="614" y="351" type="curve" smooth="yes"/>
			<point x="614" y="182"/>
			<point x="523" y="24"/>
			<point x="370" y="0" type="curve" smooth="yes"/>
			<point x="279" y="-14"/>
			<point x="181" y="22"/>
			<point x="125" y="105" type="curve"/>
		</contour>
	</outline>
</glyph>
<glyph name="E" format="2">
	<advance width="492"/>
	<unicode hex="0045"/>
	<outline>
		<contour>
			<point x="455" y="630" type="move"/>
			<point x="441" y="679"/>
			<point x="399" y="700"/>
			<point x="350" y="700" type="curve" smooth="yes"/>
			<point x="35" y="700" type="line"/>
			<point x="35" y="0" type="line"/>
			<point x="350" y="0" type="line" smooth="yes"/>
			<point x="399" y="0"/>
			<point x="441" y="28"/>
			<point x="455" y="70" type="curve"/>
		</contour>
		<contour>
			<point x="35" y="350" type="move"/>
			<point x="385" y="350" type="line"/>
		</contour>
	</outline>
</glyph>
<glyph name="F" format="2">
	<advance width="477"/>
	<unicode hex="0046"/>
	<outline>
		<contour>
			<point x="440" y="630" type="move"/>
			<point x="426" y="672"/>
			<point x="383" y="700"/>
			<point x="335" y="700" type="curve" smooth="yes"/>
			<point x="55" y="700" type="line"/>
			<point x="55" y="0" type="line"/>
		</contour>
		<contour>
			<point x="55" y="350" type="move"/>
			<point x="370" y="350" type="line"/>
		</contour>
	</outline>
</glyph>
<glyph name="G" format="2">
	<advance width="635"/>
	<unicode hex="0047"/>
	<outline>
		<contour>
			<point x="550" y="630" type="move"/>
			<point x="494" y="686"/>
			<point x="417" y="706"/>
			<point x="340" y="700" type="curve" smooth="yes"/>
			<point x="174" y="687"/>
			<point x="60" y="525"/>
			<point x="60" y="350" type="curve" smooth="yes"/>
			<point x="60" y="161"/>
			<point x="200" y="0"/>
			<point x="375" y="0" type="curve" smooth="yes"/>
			<point x="466" y="0"/>
			<point x="550" y="63"/>
			<point x="585" y="140" type="curve"/>
			<point x="585" y="350" type="line"/>
			<point x="375" y="350" type="line"/>
		</contour>
	</outline>
</glyph>
<glyph name="H" format="2">
	<advance width="740"/>
	<unicode hex="0048"/>
	<outline>
		<contour>
			<point x="55" y="700" type="move"/>
			<point x="90" y="665"/>
			<point x="113" y="615"/>
			<point x="125" y="560" type="curve" smooth="yes"/>
			<point x="159" y="399"/>
			<point x="77" y="224"/>
			<point x="146" y="70" type="curve" smooth="yes"/>
			<point x="156" y="47"/>
			<point x="174" y="21"/>
			<point x="195" y="0" type="curve"/>
		</contour>
		<contour>
			<point x="545" y="700" type="move"/>
			<point x="580" y="665"/>
			<point x="603" y="615"/>
			<point x="615" y="560" type="curve" smooth="yes"/>
			<point x="649" y="399"/>
			<point x="567" y="224"/>
			<point x="636" y="70" type="curve" smooth="yes"/>
			<point x="646" y="47"/>
			<point x="664" y="21"/>
			<point x="685" y="0" type="curve"/>
		</contour>
		<contour>
			<point x="125" y="350" type="move"/>
			<point x="615" y="350" type="line"/>
		</contour>
	</outline>
</glyph>
<glyph name="I" format="2">
	<advance width="390"/>
	<unicode hex="0049"/>
	<outline>
		<contour>
			<point x="55" y="700" type="move"/>
			<point x="195" y="700" type="line"/>
			<point x="230" y="665"/>
			<point x="254" y="615"/>
			<point x="265" y="560" type="curve" smooth="yes"/>
			<point x="296" y="399"/>
			<point x="203" y="224"/>
			<point x="279" y="70" type="curve" smooth="yes"/>
			<point x="290" y="47"/>
			<point x="314" y="21"/>
			<point x="335" y="0" type="curve"/>
			<point x="90" y="0" type="line"/>
		</contour>
	</outline>
</glyph>
<glyph name="J" format="2">
	<advance width="514"/>
	<unicode hex="004A"/>
	<outline>
		<contour>
			<point x="35" y="700" type="move"/>
			<point x="459" y="700" type="line"/>
			<point x="459" y="64" type="line" smooth="yes"/>
			<point x="459" y="-163"/>
			<point x="254" y="-332"/>
			<point x="35" y="-290" type="curve"/>
		</contour>
	</outline>
</glyph>
<glyph name="K" format="2">
	<advance width="636"/>
	<unicode hex="004B"/>
	<outline>
		<contour>
			<point x="55" y="700" type="move"/>
			<point x="90" y="665"/>
			<point x="114" y="615"/>
			<point x="125" y="560" type="curve" smooth="yes"/>
			<point x="158" y="399"/>
			<point x="63" y="224"/>
			<point x="139" y="70" type="curve" smooth="yes"/>
			<point x="150" y="47"/>
			<point x="174" y="21"/>
			<point x="195" y="0" type="curve"/>
		</contour>
		<contour>
			<point x="116" y="315" type="move"/>
			<point x="312" y="371"/>
			<point x="475" y="511"/>
			<point x="545" y="700" type="curve"/>
		</contour>
		<contour>
			<point x="292" y="394" type="move"/>
			<point x="601" y="0" type="line"/>
		</contour>
	</outline>
</glyph>
<glyph name="L" format="2">
	<advance width="580"/>
	<unicode hex="004C"/>
	<outline>
		<contour>
			<point x="55" y="700" type="move"/>
			<point x="104" y="672"/>
			<point x="125" y="616"/>
			<point x="125" y="560" type="curve" smooth="yes"/>
			<point x="125" y="0" type="line"/>
			<point x="475" y="0" type="line" smooth="yes"/>
			<point x="517" y="0"/>
			<point x="545" y="35"/>
			<point x="545" y="70" type="curve"/>
		</contour>
	</outline>
</glyph>
<glyph name="M" format="2">
	<advance width="785"/>
	<unicode hex="004D"/>
	<outline>
		<contour>
			<point x="30" y="700" type="move"/>
			<point x="86" y="707"/>
			<point x="142" y="677"/>
			<point x="170" y="630" type="curve" smooth="yes"/>
			<point x="380" y="280" type="line"/>
			<point x="590" y="630" type="line" smooth="yes"/>
			<point x="621" y="682"/>
			<point x="674" y="707"/>
			<point x="730" y="700" type="curve"/>
		</contour>
		<contour>
			<point x="100" y="690" type="move"/>
			<point x="100" y="105" type="line" smooth="yes"/>
			<point x="100" y="63"/>
			<point x="128" y="21"/>
			<point x="170" y="0" type="curve"/>
		</contour>
		<contour>
			<point x="660" y="691" type="move"/>
			<point x="660" y="105" type="line" smooth="yes"/>
			<point x="660" y="63"/>
			<point x="688" y="21"/>
			<point x="730" y="0" type="curve"/>
		</contour>
	</outline>
</glyph>
<glyph name="N" format="2">
	<advance width="585"/>
	<unicode hex="004E"/>
	<outline>
		<contour>
			<point x="30" y="0" type="move"/>
			<point x="30" y="700" type="line"/>
			<point x="86" y="693"/>
			<point x="131" y="668"/>
			<point x="170" y="630" type="curve" smooth="yes"/>
			<point x="323" y="483"/>
			<point x="262" y="217"/>
			<point x="415" y="70" type="curve" smooth="yes"/>
			<point x="454" y="32"/>
			<point x="506" y="14"/>
			<point x="555" y="0" type="curve"/>
			<point x="555" y="700" type="line"/>
		</contour>
	</outline>
</glyph>
<glyph name="O" format="2">
	<advance width="680"/>
	<unicode hex="004F"/>
	<outline>
		<contour>
			<point x="340" y="700" type="curve" smooth="yes"/>
			<point x="172" y="700"/>
			<point x="60" y="532"/>
			<point x="60" y="350" type="curve" smooth="yes"/>
			<point x="60" y="168"/>
			<point x="172" y="0"/>
			<point x="340" y="0" type="curve" smooth="yes"/>
			<point x="508" y="0"/>
			<point x="620" y="168"/>
			<point x="620" y="350" type="curve" smooth="yes"/>
			<point x="620" y="532"/>
			<point x="508" y="700"/>
		</contour>
	</outline>
</glyph>
<glyph name="P" format="2">
	<advance width="605"/>
	<unicode hex="0050"/>
	<outline>
		<contour>
			<point x="125" y="0" type="move"/>
			<point x="83" y="21"/>
			<point x="55" y="63"/>
			<point x="55" y="105" type="curve" smooth="yes"/>
			<point x="55" y="700" type="line"/>
			<point x="300" y="700" type="line" smooth="yes"/>
			<point x="426" y="700"/>
			<point x="543" y="623"/>
			<point x="545" y="504" type="curve" smooth="yes"/>
			<point x="547" y="371"/>
			<point x="411" y="280"/>
			<point x="265" y="280" type="curve" smooth="yes"/>
			<point x="188" y="280"/>
			<point x="118" y="308"/>
			<point x="55" y="350" type="curve"/>
		</contour>
	</outline>
</glyph>
<glyph name="Q" format="2">
	<advance width="763"/>
	<unicode hex="0051"/>
	<outline>
		<contour>
			<point x="346" y="707" type="curve" smooth="yes"/>
			<point x="174" y="707"/>
			<point x="60" y="536"/>
			<point x="60" y="350" type="curve" smooth="yes"/>
			<point x="60" y="164"/>
			<point x="174" y="-7"/>
			<point x="346" y="-7" type="curve" smooth="yes"/>
			<point x="517" y="-7"/>
			<point x="631" y="164"/>
			<point x="631" y="350" type="curve" smooth="yes"/>
			<point x="631" y="536"/>
			<point x="517" y="707"/>
		</contour>
		<contour>
			<point x="417" y="207" type="move"/>
			<point x="510" y="193"/>
			<point x="546" y="113"/>
			<point x="560" y="29" type="curve" smooth="yes"/>
			<point x="576" y="-64"/>
			<point x="617" y="-143"/>
			<point x="703" y="-150" type="curve"/>
		</contour>
	</outline>
</glyph>
<glyph name="R" format="2">
	<advance width="580"/>
	<unicode hex="0052"/>
	<outline>
		<contour>
			<point x="125" y="0" type="move"/>
			<point x="83" y="21"/>
			<point x="55" y="63"/>
			<point x="55" y="105" type="curve" smooth="yes"/>
			<point x="55" y="700" type="line"/>
			<point x="300" y="700" type="line" smooth="yes"/>
			<point x="426" y="700"/>
			<point x="545" y="623"/>
			<point x="545" y="504" type="curve" smooth="yes"/>
			<point x="545" y="371"/>
			<point x="412" y="280"/>
			<point x="265" y="280" type="curve" smooth="yes"/>
			<point x="188" y="280"/>
			<point x="118" y="308"/>
			<point x="55" y="350" type="curve"/>
		</contour>
		<contour>
			<point x="265" y="280" type="move"/>
			<point x="314" y="154"/>
			<point x="419" y="49"/>
			<point x="545" y="0" type="curve"/>
		</contour>
	</outline>
</glyph>
<glyph name="S" format="2">
	<advance width="677"/>
	<unicode hex="0053"/>
	<outline>
		<contour>
			<point x="601" y="602" type="move"/>
			<point x="523" y="665"/>
			<point x="424" y="708"/>
			<point x="318" y="708" type="curve" smooth="yes"/>
			<point x="184" y="708"/>
			<point x="56" y="630"/>
			<point x="71" y="509" type="curve" smooth="yes"/>
			<point x="84" y="403"/>
			<point x="204" y="367"/>
			<point x="318" y="354" type="curve" smooth="yes"/>
			<point x="459" y="338"/>
			<point x="623" y="326"/>
			<point x="636" y="192" type="curve" smooth="yes"/>
			<point x="649" y="56"/>
			<point x="495" y="-33"/>
			<point x="318" y="0" type="curve" smooth="yes"/>
			<point x="211" y="20"/>
			<point x="120" y="72"/>
			<point x="35" y="142" type="curve"/>
		</contour>
	</outline>
</glyph>
<glyph name="T" format="2">
	<advance width="630"/>
	<unicode hex="0054"/>
	<outline>
		<contour>
			<point x="35" y="630" type="move"/>
			<point x="56" y="672"/>
			<point x="91" y="700"/>
			<point x="140" y="700" type="curve" smooth="yes"/>
			<point x="315" y="700" type="line"/>
			<point x="490" y="700" type="line" smooth="yes"/>
			<point x="532" y="700"/>
			<point x="581" y="672"/>
			<point x="595" y="630" type="curve"/>
		</contour>
		<contour>
			<point x="315" y="700" type="move"/>
			<point x="315" y="0" type="line"/>
		</contour>
	</outline>
</glyph>
<glyph name="U" format="2">
	<advance width="735"/>
	<unicode hex="0055"/>
	<outline>
		<contour>
			<point x="55" y="700" type="move"/>
			<point x="90" y="665"/>
			<point x="113" y="615"/>
			<point x="125" y="560" type="curve" smooth="yes"/>
			<point x="150" y="448"/>
			<point x="111" y="328"/>
			<point x="139" y="210" type="curve" smooth="yes"/>
			<point x="167" y="91"/>
			<point x="279" y="0"/>
			<point x="405" y="0" type="curve" smooth="yes"/>
			<point x="559" y="0"/>
			<point x="685" y="126"/>
			<point x="685" y="280" type="curve" smooth="yes"/>
			<point x="685" y="490" type="line" smooth="yes"/>
			<point x="685" y="567"/>
			<point x="671" y="644"/>
			<point x="615" y="700" type="curve"/>
		</contour>
	</outline>
</glyph>
<glyph name="V" format="2">
	<advance width="630"/>
	<unicode hex="0056"/>
	<outline>
		<contour>
			<point x="35" y="700" type="move"/>
			<point x="210" y="0" type="line"/>
			<point x="315" y="0"/>
			<point x="405" y="57"/>
			<point x="455" y="140" type="curve" smooth="yes"/>
			<point x="531" y="266"/>
			<point x="491" y="427"/>
			<point x="525" y="560" type="curve" smooth="yes"/>
			<point x="539" y="616"/>
			<point x="567" y="658"/>
			<point x="595" y="700" type="curve"/>
		</contour>
	</outline>
</glyph>
<glyph name="W" format="2">
	<advance width="945"/>
	<unicode hex="0057"/>
	<outline>
		<contour>
			<point x="35" y="700" type="move"/>
			<point x="245" y="0" type="line"/>
			<point x="336" y="14"/>
			<point x="411" y="84"/>
			<point x="420" y="175" type="curve" smooth="yes"/>
			<point x="430" y="273"/>
			<point x="448" y="364"/>
			<point x="483" y="455" type="curve"/>
		</contour>
		<contour>
			<point x="420" y="700" type="move"/>
			<point x="595" y="0" type="line"/>
			<point x="672" y="21"/>
			<point x="737" y="76"/>
			<point x="770" y="140" type="curve" smooth="yes"/>
			<point x="839" y="273"/>
			<point x="799" y="427"/>
			<point x="840" y="560" type="curve" smooth="yes"/>
			<point x="857" y="615"/>
			<point x="875" y="658"/>
			<point x="910" y="700" type="curve"/>
		</contour>
	</outline>
</glyph>
<glyph name="X" format="2">
	<advance width="640"/>
	<unicode hex="0058"/>
	<outline>
		<contour>
			<point x="40" y="700" type="move"/>
			<point x="187" y="644"/>
			<point x="292" y="511"/>
			<point x="320" y="350" type="curve" smooth="yes"/>
			<point x="347" y="196"/>
			<point x="453" y="63"/>
			<point x="600" y="0" type="curve"/>
		</contour>
		<contour>
			<point x="600" y="700" type="move"/>
			<point x="439" y="665"/>
			<point x="320" y="518"/>
			<point x="320" y="350" type="curve" smooth="yes"/>
			<point x="320" y="182"/>
			<point x="208" y="42"/>
			<point x="40" y="0" type="curve"/>
		</contour>
	</outline>
</glyph>
<glyph name="Y" format="2">
	<advance width="560"/>
	<unicode hex="0059"/>
	<outline>
		<contour>
			<point x="35" y="700" type="move"/>
			<point x="70" y="665"/>
			<point x="94" y="617"/>
			<point x="105" y="560" type="curve" smooth="yes"/>
			<point x="118" y="490"/>
			<point x="106" y="420"/>
			<point x="126" y="350" type="curve" smooth="yes"/>
			<point x="148" y="273"/>
			<point x="203" y="210"/>
			<point x="280" y="210" type="curve" smooth="yes"/>
			<point x="357" y="210"/>
			<point x="419" y="272"/>
			<point x="434" y="350" type="curve" smooth="yes"/>
			<point x="447" y="420"/>
			<point x="442" y="490"/>
			<point x="455" y="560" type="curve" smooth="yes"/>
			<point x="465" y="615"/>
			<point x="490" y="665"/>
			<point x="525" y="700" type="curve"/>
		</contour>
		<contour>
			<point x="280" y="210" type="move"/>
			<point x="280" y="0" type="line"/>
		</contour>
	</outline>
</glyph>
<glyph name="Z" format="2">
	<advance width="628"/>
	<unicode hex="005A"/>
	<outline>
		<contour>
			<point x="37" y="561" type="move"/>
			<point x="109" y="700" type="line"/>
			<point x="564" y="700" type="line"/>
			<point x="526" y="561"/>
			<point x="435" y="436"/>
			<point x="320" y="350" type="curve" smooth="yes"/>
			<point x="195" y="257"/>
			<point x="99" y="144"/>
			<point x="37" y="0" type="curve"/>
			<point x="459" y="0" type="line" smooth="yes"/>
			<point x="535" y="0"/>
			<point x="593" y="67"/>
			<point x="598" y="139" type="curve"/>
		</contour>
	</outline>
</glyph>
<glyph name="bracketleft" format="2">
	<advance width="359"/>
	<unicode hex="005B"/>
	<outline>
		<contour>
			<point x="259" y="790" type="move"/>
			<point x="151" y="790" type="line" smooth="yes"/>
			<point x="115" y="790"/>
			<point x="80" y="756"/>
			<point x="80" y="719" type="curve" smooth="yes"/>
			<point x="80" y="-219" type="line" smooth="yes"/>
			<point x="80" y="-254"/>
			<point x="116" y="-290"/>
			<point x="151" y="-290" type="curve" smooth="yes"/>
			<point x="259" y="-290" type="line"/>
		</contour>
	</outline>
</glyph>
<glyph name="backslash" format="2">
	<advance width="348"/>
	<unicode hex="005C"/>
	<outline>
		<contour>
			<point x="263" y="-200" type="move"/>
			<point x="65" y="790" type="line"/>
		</contour>
	</outline>
</glyph>
<glyph name="bracketright" format="2">
	<advance width="359"/>
	<unicode hex="005D"/>
	<outline>
		<contour>
			<point x="100" y="790" type="move"/>
			<point x="208" y="790" type="line" smooth="yes"/>
			<point x="244" y="790"/>
			<point x="279" y="756"/>
			<point x="279" y="719" type="curve" smooth="yes"/>
			<point x="279" y="-219" type="line" smooth="yes"/>
			<point x="279" y="-254"/>
			<point x="243" y="-290"/>
			<point x="208" y="-290" type="curve" smooth="yes"/>
			<point x="100" y="-290" type="line"/>
		</contour>
	</outline>
</glyph>
<glyph name="underscore" format="2">
	<advance width="370"/>
	<unicode hex="005F"/>
	<outline>
		<contour>
			<point x="60" y="-45" type="move"/>
			<point x="310" y="-45" type="line"/>
		</contour>
	</outline>
</glyph>
<glyph name="grave" format="2">
	<advance width="189"/>
	<unicode hex="0060"/>
	<outline>
		<contour>
			<point x="149" y="603" type="move"/>
			<point x="85" y="596"/>
			<point x="28" y="646"/>
			<point x="42" y="710" type="curve"/>
			<point x="78" y="710" type="line"/>
		</contour>
	</outline>
</glyph>
<glyph name="a" format="2">
	<advance width="585"/>
	<unicode hex="0061"/>
	<outline>
		<contour>
			<point x="81" y="428" type="move"/>
			<point x="131" y="478"/>
			<point x="195" y="500"/>
			<point x="259" y="500" type="curve" smooth="yes"/>
			<point x="359" y="500"/>
			<point x="445" y="450"/>
			<point x="473" y="357" type="curve" smooth="yes"/>
			<point x="501" y="264"/>
			<point x="453" y="164"/>
			<point x="488" y="71" type="curve" smooth="yes"/>
			<point x="499" y="42"/>
			<point x="523" y="21"/>
			<point x="545" y="0" type="curve"/>
		</contour>
		<contour>
			<point x="478" y="214" type="move"/>
			<point x="414" y="257"/>
			<point x="338" y="286"/>
			<point x="259" y="286" type="curve" smooth="yes"/>
			<point x="151" y="286"/>
			<point x="45" y="243"/>
			<point x="45" y="143" type="curve" smooth="yes"/>
			<point x="45" y="50"/>
			<point x="152" y="0"/>
			<point x="259" y="0" type="curve" smooth="yes"/>
			<point x="345" y="0"/>
			<point x="423" y="29"/>
			<point x="488" y="71" type="curve"/>
		</contour>
	</outline>
</glyph>
<glyph name="b" format="2">
	<advance width="697"/>
	<unicode hex="0062"/>
	<outline>
		<contour>
			<point x="40" y="786" type="move"/>
			<point x="76" y="750"/>
			<point x="100" y="699"/>
			<point x="111" y="643" type="curve" smooth="yes"/>
			<point x="146" y="464"/>
			<point x="27" y="264"/>
			<point x="133" y="107" type="curve" smooth="yes"/>
			<point x="182" y="35"/>
			<point x="276" y="0"/>
			<point x="361" y="0" type="curve" smooth="yes"/>
			<point x="511" y="0"/>
			<point x="648" y="107"/>
			<point x="647" y="250" type="curve" smooth="yes"/>
			<point x="646" y="400"/>
			<point x="518" y="506"/>
			<point x="361" y="500" type="curve" smooth="yes"/>
			<point x="240" y="495"/>
			<point x="124" y="407"/>
			<point x="88" y="286" type="curve"/>
		</contour>
	</outline>
</glyph>
<glyph name="c" format="2">
	<advance width="540"/>
	<unicode hex="0063"/>
	<outline>
		<contour>
			<point x="515" y="428" type="move"/>
			<point x="451" y="486"/>
			<point x="358" y="513"/>
			<point x="266" y="500" type="curve" smooth="yes"/>
			<point x="157" y="485"/>
			<point x="61" y="395"/>
			<point x="51" y="286" type="curve" smooth="yes"/>
			<point x="38" y="150"/>
			<point x="130" y="30"/>
			<point x="266" y="0" type="curve" smooth="yes"/>
			<point x="358" y="-20"/>
			<point x="451" y="7"/>
			<point x="515" y="72" type="curve"/>
		</contour>
	</outline>
</glyph>
<glyph name="d" format="2">
	<advance width="702"/>
	<unicode hex="0064"/>
	<outline>
		<contour>
			<point x="514" y="786" type="move"/>
			<point x="550" y="750"/>
			<point x="573" y="701"/>
			<point x="586" y="643" type="curve" smooth="yes"/>
			<point x="627" y="457"/>
			<point x="515" y="248"/>
			<point x="607" y="71" type="curve" smooth="yes"/>
			<point x="618" y="50"/>
			<point x="636" y="21"/>
			<point x="657" y="0" type="curve"/>
		</contour>
		<contour>
			<point x="578" y="357" type="move"/>
			<point x="521" y="450"/>
			<point x="421" y="501"/>
			<point x="314" y="500" type="curve" smooth="yes"/>
			<point x="171" y="499"/>
			<point x="50" y="393"/>
			<point x="50" y="250" type="curve" smooth="yes"/>
			<point x="50" y="107"/>
			<point x="186" y="0"/>
			<point x="336" y="0" type="curve" smooth="yes"/>
			<point x="428" y="0"/>
			<point x="521" y="50"/>
			<point x="586" y="121" type="curve"/>
		</contour>
	</outline>
</glyph>
<glyph name="e" format="2">
	<advance width="540"/>
	<unicode hex="0065"/>
	<outline>
		<contour>
			<point x="515" y="72" type="move"/>
			<point x="451" y="7"/>
			<point x="359" y="-20"/>
			<point x="266" y="0" type="curve" smooth="yes"/>
			<point x="129" y="29"/>
			<point x="39" y="150"/>
			<point x="51" y="286" type="curve" smooth="yes"/>
			<point x="62" y="415"/>
			<point x="184" y="500"/>
			<point x="313" y="500" type="curve" smooth="yes"/>
			<point x="420" y="500"/>
			<point x="520" y="436"/>
			<point x="515" y="343" type="curve" smooth="yes"/>
			<point x="510" y="243"/>
			<point x="401" y="203"/>
			<point x="287" y="214" type="curve" smooth="yes"/>
			<point x="208" y="222"/>
			<point x="130" y="242"/>
			<point x="51" y="286" type="curve"/>
		</contour>
	</outline>
</glyph>
<glyph name="f" format="2">
	<advance width="523"/>
	<unicode hex="0066"/>
	<outline>
		<contour>
			<point x="538" y="738" type="move"/>
			<point x="473" y="796"/>
			<point x="374" y="812"/>
			<point x="292" y="779" type="curve" smooth="yes"/>
			<point x="193" y="739"/>
			<point x="127" y="639"/>
			<point x="127" y="533" type="curve" smooth="yes"/>
			<point x="127" y="278"/>
			<point x="241" y="6"/>
			<point x="111" y="-207" type="curve" smooth="yes"/>
			<point x="92" y="-239"/>
			<point x="70" y="-273"/>
			<point x="45" y="-290" type="curve"/>
		</contour>
		<contour>
			<point x="45" y="368" type="move"/>
			<point x="111" y="393"/>
			<point x="185" y="384"/>
			<point x="251" y="368" type="curve" smooth="yes"/>
			<point x="316" y="352"/>
			<point x="390" y="343"/>
			<point x="456" y="368" type="curve"/>
		</contour>
	</outline>
</glyph>
<glyph name="g" format="2">
	<advance width="594"/>
	<unicode hex="0067"/>
	<outline>
		<contour>
			<point x="290" y="500" type="curve"/>
			<point x="159" y="500"/>
			<point x="37" y="437"/>
			<point x="37" y="321" type="curve" smooth="yes"/>
			<point x="37" y="206"/>
			<point x="159" y="139"/>
			<point x="290" y="139" type="curve" smooth="yes"/>
			<point x="418" y="139"/>
			<point x="539" y="206"/>
			<point x="539" y="321" type="curve" smooth="yes"/>
			<point x="539" y="437"/>
			<point x="418" y="500"/>
		</contour>
		<contour>
			<point x="440" y="464" type="move"/>
			<point x="491" y="472"/>
			<point x="533" y="513"/>
			<point x="539" y="572" type="curve"/>
		</contour>
		<contour>
			<point x="183" y="249" type="move"/>
			<point x="111" y="206"/>
			<point x="27" y="175"/>
			<point x="37" y="103" type="curve" smooth="yes"/>
			<point x="51" y="-1"/>
			<point x="196" y="32"/>
			<point x="326" y="32" type="curve" smooth="yes"/>
			<point x="453" y="32"/>
			<point x="580" y="-18"/>
			<point x="574" y="-133" type="curve" smooth="yes"/>
			<point x="568" y="-254"/>
			<point x="426" y="-290"/>
			<point x="290" y="-290" type="curve" smooth="yes"/>
			<point x="183" y="-290"/>
			<point x="67" y="-262"/>
			<point x="37" y="-162" type="curve" smooth="yes"/>
			<point x="12" y="-79"/>
			<point x="59" y="12"/>
			<point x="146" y="28" type="curve"/>
		</contour>
	</outline>
</glyph>
<glyph name="h" format="2">
	<advance width="656"/>
	<unicode hex="0068"/>
	<outline>
		<contour>
			<point x="40" y="786" type="move"/>
			<point x="76" y="750"/>
			<point x="96" y="700"/>
			<point x="111" y="643" type="curve" smooth="yes"/>
			<point x="160" y="457"/>
			<point x="48" y="250"/>
			<point x="133" y="71" type="curve" smooth="yes"/>
			<point x="144" y="48"/>
			<point x="161" y="21"/>
			<point x="183" y="0" type="curve"/>
		</contour>
		<contour>
			<point x="109" y="357" type="move"/>
			<point x="152" y="443"/>
			<point x="233" y="500"/>
			<point x="326" y="500" type="curve" smooth="yes"/>
			<point x="426" y="500"/>
			<point x="506" y="448"/>
			<point x="540" y="357" type="curve" smooth="yes"/>
			<point x="575" y="264"/>
			<point x="527" y="164"/>
			<point x="561" y="71" type="curve" smooth="yes"/>
			<point x="572" y="41"/>
			<point x="590" y="21"/>
			<point x="611" y="0" type="curve" smooth="yes"/>
		</contour>
	</outline>
</glyph>
<glyph name="i" format="2">
	<advance width="274"/>
	<unicode hex="0069"/>
	<outline>
		<contour>
			<point x="15" y="357" type="move"/>
			<point x="86" y="500" type="line"/>
			<point x="144" y="486"/>
			<point x="159" y="421"/>
			<point x="158" y="357" type="curve" smooth="yes"/>
			<point x="157" y="264"/>
			<point x="130" y="164"/>
			<point x="172" y="71" type="curve" smooth="yes"/>
			<point x="185" y="42"/>
			<point x="208" y="21"/>
			<point x="229" y="0" type="curve"/>
		</contour>
		<contour>
			<point x="122" y="647" type="move"/>
			<point x="151" y="690"/>
			<point x="158" y="740"/>
			<point x="158" y="790" type="curve"/>
		</contour>
	</outline>
</glyph>
<glyph name="j" format="2">
	<advance width="232"/>
	<unicode hex="006A"/>
	<outline>
		<contour>
			<point x="40" y="351" type="move"/>
			<point x="111" y="500" type="line"/>
			<point x="161" y="472"/>
			<point x="182" y="408"/>
			<point x="182" y="351" type="curve" smooth="yes"/>
			<point x="182" y="208"/>
			<point x="199" y="66"/>
			<point x="168" y="-76" type="curve" smooth="yes"/>
			<point x="151" y="-154"/>
			<point x="104" y="-226"/>
			<point x="40" y="-290" type="curve"/>
		</contour>
		<contour>
			<point x="147" y="648" type="move"/>
			<point x="175" y="690"/>
			<point x="182" y="740"/>
			<point x="182" y="790" type="curve"/>
		</contour>
	</outline>
</glyph>
<glyph name="k" format="2">
	<advance width="644"/>
	<unicode hex="006B"/>
	<outline>
		<contour>
			<point x="40" y="790" type="move"/>
			<point x="76" y="754"/>
			<point x="100" y="702"/>
			<point x="112" y="646" type="curve" smooth="yes"/>
			<point x="153" y="459"/>
			<point x="35" y="251"/>
			<point x="126" y="72" type="curve" smooth="yes"/>
			<point x="138" y="49"/>
			<point x="162" y="22"/>
			<point x="184" y="0" type="curve"/>
		</contour>
		<contour>
			<point x="100" y="359" type="curve"/>
			<point x="157" y="430"/>
			<point x="236" y="483"/>
			<point x="322" y="502" type="curve" smooth="yes"/>
			<point x="452" y="530"/>
			<point x="580" y="474"/>
			<point x="573" y="359" type="curve" smooth="yes"/>
			<point x="566" y="244"/>
			<point x="423" y="207"/>
			<point x="286" y="251" type="curve" smooth="yes"/>
			<point x="219" y="272"/>
			<point x="157" y="316"/>
		</contour>
		<contour>
			<point x="286" y="251" type="move"/>
			<point x="336" y="115"/>
			<point x="471" y="14"/>
			<point x="614" y="0" type="curve"/>
		</contour>
	</outline>
</glyph>
<glyph name="l" format="2">
	<advance width="229"/>
	<unicode hex="006C"/>
	<outline>
		<contour>
			<point x="40" y="790" type="move"/>
			<point x="76" y="754"/>
			<point x="99" y="703"/>
			<point x="112" y="647" type="curve" smooth="yes"/>
			<point x="154" y="460"/>
			<point x="34" y="251"/>
			<point x="126" y="72" type="curve" smooth="yes"/>
			<point x="138" y="48"/>
			<point x="162" y="22"/>
			<point x="184" y="0" type="curve"/>
		</contour>
	</outline>
</glyph>
<glyph name="m" format="2">
	<advance width="1013"/>
	<unicode hex="006D"/>
	<outline>
		<contour>
			<point x="40" y="500" type="move"/>
			<point x="83" y="464"/>
			<point x="102" y="414"/>
			<point x="111" y="357" type="curve" smooth="yes"/>
			<point x="125" y="264"/>
			<point x="91" y="164"/>
			<point x="126" y="71" type="curve" smooth="yes"/>
			<point x="137" y="42"/>
			<point x="161" y="21"/>
			<point x="183" y="0" type="curve"/>
		</contour>
		<contour>
			<point x="111" y="357" type="move"/>
			<point x="140" y="436"/>
			<point x="211" y="494"/>
			<point x="290" y="500" type="curve" smooth="yes"/>
			<point x="390" y="507"/>
			<point x="476" y="450"/>
			<point x="504" y="357" type="curve" smooth="yes"/>
			<point x="532" y="264"/>
			<point x="484" y="164"/>
			<point x="518" y="71" type="curve" smooth="yes"/>
			<point x="529" y="41"/>
			<point x="554" y="21"/>
			<point x="576" y="0" type="curve"/>
		</contour>
		<contour>
			<point x="504" y="357" type="move"/>
			<point x="533" y="436"/>
			<point x="604" y="493"/>
			<point x="683" y="500" type="curve" smooth="yes"/>
			<point x="783" y="507"/>
			<point x="869" y="450"/>
			<point x="897" y="357" type="curve" smooth="yes"/>
			<point x="925" y="264"/>
			<point x="877" y="164"/>
			<point x="911" y="71" type="curve" smooth="yes"/>
			<point x="922" y="41"/>
			<point x="947" y="21"/>
			<point x="968" y="0" type="curve" smooth="yes"/>
		</contour>
	</outline>
</glyph>
<glyph name="n" format="2">
	<advance width="656"/>
	<unicode hex="006E"/>
	<outline>
		<contour>
			<point x="40" y="500" type="move"/>
			<point x="83" y="464"/>
			<point x="102" y="414"/>
			<point x="111" y="357" type="curve" smooth="yes"/>
			<point x="125" y="264"/>
			<point x="91" y="164"/>
			<point x="126" y="71" type="curve" smooth="yes"/>
			<point x="137" y="42"/>
			<point x="161" y="21"/>
			<point x="183" y="0" type="curve"/>
		</contour>
		<contour>
			<point x="111" y="357" type="move"/>
			<point x="154" y="443"/>
			<point x="233" y="500"/>
			<point x="326" y="500" type="curve" smooth="yes"/>
			<point x="426" y="500"/>
			<point x="513" y="451"/>
			<point x="540" y="357" type="curve" smooth="yes"/>
			<point x="567" y="264"/>
			<point x="519" y="164"/>
			<point x="554" y="71" type="curve" smooth="yes"/>
			<point x="565" y="42"/>
			<point x="590" y="21"/>
			<point x="611" y="0" type="curve" smooth="yes"/>
		</contour>
	</outline>
</glyph>
<glyph name="o" format="2">
	<advance width="604"/>
	<unicode hex="006F"/>
	<outline>
		<contour>
			<point x="302" y="500" type="curve" smooth="yes"/>
			<point x="452" y="500"/>
			<point x="572" y="371"/>
			<point x="552" y="214" type="curve" smooth="yes"/>
			<point x="536" y="92"/>
			<point x="423" y="0"/>
			<point x="302" y="0" type="curve" smooth="yes"/>
			<point x="173" y="0"/>
			<point x="66" y="93"/>
			<point x="52" y="214" type="curve" smooth="yes"/>
			<point x="35" y="364"/>
			<point x="152" y="500"/>
		</contour>
	</outline>
</glyph>
<glyph name="p" format="2">
	<advance width="662"/>
	<unicode hex="0070"/>
	<outline>
		<contour>
			<point x="40" y="500" type="move"/>
			<point x="76" y="457"/>
			<point x="100" y="406"/>
			<point x="111" y="357" type="curve" smooth="yes"/>
			<point x="153" y="164"/>
			<point x="34" y="-43"/>
			<point x="126" y="-214" type="curve" smooth="yes"/>
			<point x="141" y="-242"/>
			<point x="161" y="-271"/>
			<point x="183" y="-286" type="curve"/>
		</contour>
		<contour>
			<point x="111" y="357" type="move"/>
			<point x="154" y="443"/>
			<point x="247" y="500"/>
			<point x="340" y="500" type="curve" smooth="yes"/>
			<point x="504" y="500"/>
			<point x="626" y="365"/>
			<point x="611" y="214" type="curve" smooth="yes"/>
			<point x="598" y="86"/>
			<point x="490" y="0"/>
			<point x="361" y="0" type="curve" smooth="yes"/>
			<point x="261" y="0"/>
			<point x="161" y="50"/>
			<point x="111" y="143" type="curve"/>
		</contour>
	</outline>
</glyph>
<glyph name="q" format="2">
	<advance width="670"/>
	<unicode hex="0071"/>
	<outline>
		<contour>
			<point x="625" y="500" type="move"/>
			<point x="582" y="464"/>
			<point x="554" y="407"/>
			<point x="553" y="356" type="curve" smooth="yes"/>
			<point x="552" y="284"/>
			<point x="553" y="213"/>
			<point x="553" y="141" type="curve" smooth="yes"/>
			<point x="553" y="19"/>
			<point x="531" y="-111"/>
			<point x="574" y="-218" type="curve" smooth="yes"/>
			<point x="586" y="-248"/>
			<point x="603" y="-276"/>
			<point x="625" y="-290" type="curve"/>
		</contour>
		<contour>
			<point x="553" y="356" type="move"/>
			<point x="503" y="443"/>
			<point x="402" y="500"/>
			<point x="301" y="500" type="curve" smooth="yes"/>
			<point x="165" y="500"/>
			<point x="50" y="385"/>
			<point x="50" y="249" type="curve" smooth="yes"/>
			<point x="50" y="112"/>
			<point x="165" y="-3"/>
			<point x="301" y="-3" type="curve" smooth="yes"/>
			<point x="402" y="-3"/>
			<point x="503" y="47"/>
			<point x="553" y="141" type="curve"/>
		</contour>
	</outline>
</glyph>
<glyph name="r" format="2">
	<advance width="539"/>
	<unicode hex="0072"/>
	<outline>
		<contour>
			<point x="40" y="500" type="move"/>
			<point x="83" y="464"/>
			<point x="103" y="414"/>
			<point x="111" y="357" type="curve" smooth="yes"/>
			<point x="124" y="264"/>
			<point x="91" y="164"/>
			<point x="126" y="71" type="curve" smooth="yes"/>
			<point x="137" y="42"/>
			<point x="161" y="21"/>
			<point x="183" y="0" type="curve"/>
		</contour>
		<contour>
			<point x="111" y="357" type="move"/>
			<point x="161" y="436"/>
			<point x="240" y="491"/>
			<point x="326" y="500" type="curve" smooth="yes"/>
			<point x="390" y="507"/>
			<point x="454" y="500"/>
			<point x="504" y="464" type="curve"/>
		</contour>
	</outline>
</glyph>
<glyph name="s" format="2">
	<advance width="509"/>
	<unicode hex="0073"/>
	<outline>
		<contour>
			<point x="448" y="428" type="move"/>
			<point x="391" y="486"/>
			<point x="313" y="500"/>
			<point x="234" y="500" type="curve" smooth="yes"/>
			<point x="134" y="500"/>
			<point x="43" y="443"/>
			<point x="56" y="357" type="curve" smooth="yes"/>
			<point x="69" y="271"/>
			<point x="184" y="262"/>
			<point x="270" y="250" type="curve" smooth="yes"/>
			<point x="377" y="235"/>
			<point x="490" y="200"/>
			<point x="484" y="107" type="curve" smooth="yes"/>
			<point x="479" y="36"/>
			<point x="391" y="0"/>
			<point x="306" y="0" type="curve" smooth="yes"/>
			<point x="206" y="0"/>
			<point x="99" y="14"/>
			<point x="20" y="86" type="curve"/>
		</contour>
	</outline>
</glyph>
<glyph name="t" format="2">
	<advance width="442"/>
	<unicode hex="0074"/>
	<outline>
		<contour>
			<point x="45" y="642" type="move"/>
			<point x="72" y="598"/>
			<point x="96" y="548"/>
			<point x="102" y="500" type="curve" smooth="yes"/>
			<point x="120" y="355"/>
			<point x="46" y="192"/>
			<point x="129" y="70" type="curve" smooth="yes"/>
			<point x="153" y="35"/>
			<point x="187" y="10"/>
			<point x="224" y="0" type="curve" smooth="yes"/>
			<point x="289" y="-18"/>
			<point x="352" y="-7"/>
			<point x="402" y="34" type="curve"/>
		</contour>
		<contour>
			<point x="102" y="500" type="move"/>
			<point x="402" y="500" type="line"/>
		</contour>
	</outline>
</glyph>
<glyph name="u" format="2">
	<advance width="621"/>
	<unicode hex="0075"/>
	<outline>
		<contour>
			<point x="40" y="500" type="move"/>
			<point x="61" y="457"/>
			<point x="76" y="407"/>
			<point x="76" y="357" type="curve" smooth="yes"/>
			<point x="76" y="286"/>
			<point x="55" y="214"/>
			<point x="76" y="143" type="curve" smooth="yes"/>
			<point x="102" y="56"/>
			<point x="190" y="0"/>
			<point x="290" y="0" type="curve" smooth="yes"/>
			<point x="383" y="0"/>
			<point x="463" y="64"/>
			<point x="499" y="143" type="curve"/>
		</contour>
		<contour>
			<point x="468" y="500" type="move"/>
			<point x="490" y="457"/>
			<point x="501" y="407"/>
			<point x="504" y="357" type="curve" smooth="yes"/>
			<point x="509" y="264"/>
			<point x="477" y="164"/>
			<point x="518" y="71" type="curve" smooth="yes"/>
			<point x="531" y="42"/>
			<point x="547" y="21"/>
			<point x="576" y="0" type="curve"/>
		</contour>
	</outline>
</glyph>
<glyph name="v" format="2">
	<advance width="570"/>
	<unicode hex="0076"/>
	<outline>
		<contour>
			<point x="35" y="500" type="move"/>
			<point x="214" y="0" type="line"/>
			<point x="285" y="-7"/>
			<point x="353" y="18"/>
			<point x="392" y="71" type="curve" smooth="yes"/>
			<point x="455" y="157"/>
			<point x="443" y="264"/>
			<point x="463" y="357" type="curve" smooth="yes"/>
			<point x="475" y="415"/>
			<point x="499" y="464"/>
			<point x="535" y="500" type="curve"/>
		</contour>
	</outline>
</glyph>
<glyph name="w" format="2">
	<advance width="856"/>
	<unicode hex="0077"/>
	<outline>
		<contour>
			<point x="35" y="500" type="move"/>
			<point x="214" y="0" type="line"/>
			<point x="292" y="7"/>
			<point x="341" y="71"/>
			<point x="356" y="143" type="curve" smooth="yes"/>
			<point x="372" y="221"/>
			<point x="396" y="295"/>
			<point x="432" y="359" type="curve"/>
		</contour>
		<contour>
			<point x="392" y="500" type="move"/>
			<point x="535" y="0" type="line"/>
			<point x="592" y="0"/>
			<point x="645" y="26"/>
			<point x="678" y="71" type="curve" smooth="yes"/>
			<point x="741" y="157"/>
			<point x="729" y="264"/>
			<point x="749" y="357" type="curve" smooth="yes"/>
			<point x="761" y="414"/>
			<point x="785" y="464"/>
			<point x="821" y="500" type="curve"/>
		</contour>
	</outline>
</glyph>
<glyph name="x" format="2">
	<advance width="570"/>
	<unicode hex="0078"/>
	<outline>
		<contour>
			<point x="35" y="500" type="move"/>
			<point x="156" y="478"/>
			<point x="255" y="386"/>
			<point x="285" y="264" type="curve" smooth="yes"/>
			<point x="315" y="141"/>
			<point x="413" y="43"/>
			<point x="535" y="0" type="curve"/>
		</contour>
		<contour>
			<point x="535" y="500" type="move"/>
			<point x="406" y="500"/>
			<point x="300" y="400"/>
			<point x="285" y="264" type="curve" smooth="yes"/>
			<point x="270" y="130"/>
			<point x="171" y="21"/>
			<point x="35" y="0" type="curve"/>
		</contour>
	</outline>
</glyph>
<glyph name="y" format="2">
	<advance width="537"/>
	<unicode hex="0079"/>
	<outline>
		<contour>
			<point x="35" y="500" type="move"/>
			<point x="56" y="451"/>
			<point x="66" y="399"/>
			<point x="71" y="356" type="curve" smooth="yes"/>
			<point x="80" y="277"/>
			<point x="79" y="206"/>
			<point x="107" y="141" type="curve" smooth="yes"/>
			<point x="150" y="40"/>
			<point x="250" y="-17"/>
			<point x="358" y="-3" type="curve"/>
		</contour>
		<contour>
			<point x="502" y="500" type="move"/>
			<point x="452" y="328"/>
			<point x="401" y="162"/>
			<point x="358" y="-3" type="curve" smooth="yes"/>
			<point x="329" y="-118"/>
			<point x="265" y="-218"/>
			<point x="179" y="-290" type="curve"/>
		</contour>
	</outline>
</glyph>
<glyph name="z" format="2">
	<advance width="586"/>
	<unicode hex="007A"/>
	<outline>
		<contour>
			<point x="59" y="357" type="move"/>
			<point x="131" y="500" type="line"/>
			<point x="531" y="500" type="line"/>
			<point x="481" y="400"/>
			<point x="402" y="321"/>
			<point x="295" y="250" type="curve" smooth="yes"/>
			<point x="199" y="186"/>
			<point x="109" y="107"/>
			<point x="45" y="0" type="curve"/>
			<point x="438" y="0" type="line" smooth="yes"/>
			<point x="509" y="0"/>
			<point x="552" y="79"/>
			<point x="545" y="143" type="curve"/>
		</contour>
	</outline>
</glyph>
<glyph name="braceleft" format="2">
	<advance width="466"/>
	<unicode hex="007B"/>
	<outline>
		<contour>
			<point x="366" y="790" type="move"/>
			<point x="259" y="790" type="line" smooth="yes"/>
			<point x="216" y="790"/>
			<point x="187" y="755"/>
			<point x="187" y="719" type="curve" smooth="yes"/>
			<point x="187" y="396" type="line" smooth="yes"/>
			<point x="187" y="331"/>
			<point x="137" y="288"/>
			<point x="80" y="288" type="curve"/>
			<point x="137" y="281"/>
			<point x="187" y="238"/>
			<point x="187" y="181" type="curve" smooth="yes"/>
			<point x="187" y="-211" type="line" smooth="yes"/>
			<point x="187" y="-254"/>
			<point x="216" y="-290"/>
			<point x="259" y="-290" type="curve" smooth="yes"/>
			<point x="366" y="-290" type="line"/>
		</contour>
	</outline>
</glyph>
<glyph name="bar" format="2">
	<advance width="200"/>
	<unicode hex="007C"/>
	<outline>
		<contour>
			<point x="100" y="700" type="move"/>
			<point x="100" y="-90" type="line"/>
		</contour>
	</outline>
</glyph>
<glyph name="braceright" format="2">
	<advance width="466"/>
	<unicode hex="007D"/>
	<outline>
		<contour>
			<point x="100" y="-290" type="move"/>
			<point x="207" y="-290" type="line" smooth="yes"/>
			<point x="250" y="-290"/>
			<point x="279" y="-254"/>
			<point x="279" y="-211" type="curve" smooth="yes"/>
			<point x="279" y="181" type="line" smooth="yes"/>
			<point x="279" y="238"/>
			<point x="329" y="281"/>
			<point x="386" y="288" type="curve"/>
			<point x="329" y="288"/>
			<point x="279" y="331"/>
			<point x="279" y="396" type="curve" smooth="yes"/>
			<point x="279" y="719" type="line" smooth="yes"/>
			<point x="279" y="755"/>
			<point x="250" y="790"/>
			<point x="207" y="790" type="curve" smooth="yes"/>
			<point x="100" y="790" type="line"/>
		</contour>
	</outline>
</glyph>
<glyph name="asciitilde" format="2">
	<advance width="529"/>
	<unicode hex="007E"/>
	<outline>
		<contour>
			<point x="45" y="250" type="move"/>
			<point x="113" y="282"/>
			<point x="191" y="283"/>
			<point x="259" y="252" type="curve" smooth="yes"/>
			<point x="327" y="221"/>
			<point x="406" y="218"/>
			<point x="474" y="250" type="curve"/>
		</contour>
	</outline>
</glyph>
<glyph name="exclamdown" format="2">
	<advance width="237"/>
	<unicode hex="00A1"/>
	<outline>
		<contour>
			<point x="65" y="284" type="move"/>
			<point x="101" y="248"/>
			<point x="127" y="198"/>
			<point x="137" y="141" type="curve" smooth="yes"/>
			<point x="157" y="26"/>
			<point x="102" y="-104"/>
			<point x="151" y="-219" type="curve" smooth="yes"/>
			<point x="163" y="-248"/>
			<point x="187" y="-269"/>
			<point x="209" y="-290" type="curve"/>
		</contour>
		<contour>
			<point x="101" y="520" type="move"/>
			<point x="209" y="520" type="line"/>
			<point x="223" y="462"/>
			<point x="194" y="405"/>
			<point x="137" y="376" type="curve"/>
		</contour>
	</outline>
</glyph>
<glyph name="cent" format="2">
	<advance width="543"/>
	<unicode hex="00A2"/>
	<outline>
		<contour>
			<point x="518" y="520" type="move"/>
			<point x="453" y="576"/>
			<point x="360" y="605"/>
			<point x="266" y="591" type="curve" smooth="yes"/>
			<point x="157" y="575"/>
			<point x="61" y="483"/>
			<point x="51" y="376" type="curve" smooth="yes"/>
			<point x="38" y="240"/>
			<point x="130" y="112"/>
			<point x="266" y="89" type="curve" smooth="yes"/>
			<point x="361" y="73"/>
			<point x="453" y="98"/>
			<point x="518" y="161" type="curve"/>
		</contour>
		<contour>
			<point x="303" y="700" type="move"/>
			<point x="303" y="-61" type="line"/>
		</contour>
	</outline>
</glyph>
<glyph name="sterling" format="2">
	<advance width="422"/>
	<unicode hex="00A3"/>
	<outline>
		<contour>
			<point x="407" y="668" type="move"/>
			<point x="356" y="713"/>
			<point x="280" y="723"/>
			<point x="216" y="700" type="curve" smooth="yes"/>
			<point x="139" y="672"/>
			<point x="89" y="592"/>
			<point x="89" y="509" type="curve" smooth="yes"/>
			<point x="89" y="356"/>
			<point x="149" y="197"/>
			<point x="76" y="64" type="curve" smooth="yes"/>
			<point x="62" y="39"/>
			<point x="44" y="19"/>
			<point x="25" y="0" type="curve"/>
			<point x="407" y="0" type="line"/>
		</contour>
		<contour>
			<point x="25" y="318" type="move"/>
			<point x="76" y="344"/>
			<point x="133" y="330"/>
			<point x="184" y="318" type="curve" smooth="yes"/>
			<point x="235" y="306"/>
			<point x="292" y="299"/>
			<point x="343" y="318" type="curve"/>
		</contour>
	</outline>
</glyph>
<glyph name="currency" format="2">
	<advance width="476"/>
	<unicode hex="00A4"/>
	<outline>
		<contour>
			<point x="239" y="500" type="curve" smooth="yes"/>
			<point x="158" y="500"/>
			<point x="94" y="435"/>
			<point x="94" y="355" type="curve" smooth="yes"/>
			<point x="94" y="274"/>
			<point x="158" y="210"/>
			<point x="239" y="210" type="curve" smooth="yes"/>
			<point x="320" y="210"/>
			<point x="383" y="274"/>
			<point x="383" y="355" type="curve" smooth="yes"/>
			<point x="383" y="435"/>
			<point x="320" y="500"/>
		</contour>
		<contour>
			<point x="134" y="455" type="move"/>
			<point x="65" y="528" type="line"/>
		</contour>
		<contour>
			<point x="134" y="251" type="move"/>
			<point x="65" y="183" type="line"/>
		</contour>
		<contour>
			<point x="343" y="455" type="move"/>
			<point x="411" y="528" type="line"/>
		</contour>
		<contour>
			<point x="343" y="251" type="move"/>
			<point x="411" y="183" type="line"/>
		</contour>
	</outline>
</glyph>
<glyph name="yen" format="2">
	<advance width="520"/>
	<unicode hex="00A5"/>
	<outline>
		<contour>
			<point x="15" y="700" type="move"/>
			<point x="50" y="665"/>
			<point x="74" y="617"/>
			<point x="85" y="560" type="curve" smooth="yes"/>
			<point x="98" y="490"/>
			<point x="86" y="420"/>
			<point x="106" y="350" type="curve" smooth="yes"/>
			<point x="128" y="273"/>
			<point x="183" y="210"/>
			<point x="260" y="210" type="curve" smooth="yes"/>
			<point x="337" y="210"/>
			<point x="399" y="272"/>
			<point x="414" y="350" type="curve" smooth="yes"/>
			<point x="427" y="420"/>
			<point x="422" y="490"/>
			<point x="435" y="560" type="curve" smooth="yes"/>
			<point x="445" y="615"/>
			<point x="470" y="665"/>
			<point x="505" y="700" type="curve"/>
		</contour>
		<contour>
			<point x="260" y="210" type="move"/>
			<point x="260" y="0" type="line"/>
		</contour>
		<contour>
			<point x="85" y="210" type="move"/>
			<point x="435" y="210" type="line"/>
		</contour>
		<contour>
			<point x="85" y="105" type="move"/>
			<point x="435" y="105" type="line"/>
		</contour>
	</outline>
</glyph>
<glyph name="brokenbar" format="2">
	<advance width="200"/>
	<unicode hex="00A6"/>
	<outline>
		<contour>
			<point x="100" y="240" type="move"/>
			<point x="100" y="-90" type="line"/>
		</contour>
		<contour>
			<point x="100" y="700" type="move"/>
			<point x="100" y="370" type="line"/>
		</contour>
	</outline>
</glyph>
<glyph name="section" format="2">
	<advance width="590"/>
	<unicode hex="00A7"/>
	<outline>
		<contour>
			<point x="293" y="434" type="move"/>
			<point x="177" y="434"/>
			<point x="68" y="373"/>
			<point x="68" y="298" type="curve" smooth="yes"/>
			<point x="68" y="215"/>
			<point x="190" y="198"/>
			<point x="286" y="176" type="curve" smooth="yes"/>
			<point x="402" y="149"/>
			<point x="535" y="128"/>
			<point x="535" y="43" type="curve" smooth="yes"/>
			<point x="535" y="-39"/>
			<point x="415" y="-90"/>
			<point x="320" y="-90" type="curve" smooth="yes"/>
			<point x="226" y="-90"/>
			<point x="110" y="-56"/>
			<point x="35" y="26" type="curve"/>
		</contour>
		<contour>
			<point x="286" y="176" type="move"/>
			<point x="402" y="176"/>
			<point x="511" y="222"/>
			<point x="511" y="297" type="curve" smooth="yes"/>
			<point x="511" y="381"/>
			<point x="388" y="414"/>
			<point x="293" y="434" type="curve" smooth="yes"/>
			<point x="177" y="461"/>
			<point x="44" y="482"/>
			<point x="44" y="567" type="curve" smooth="yes"/>
			<point x="44" y="647"/>
			<point x="163" y="700"/>
			<point x="259" y="700" type="curve" smooth="yes"/>
			<point x="354" y="700"/>
			<point x="470" y="666"/>
			<point x="545" y="584" type="curve"/>
		</contour>
	</outline>
</glyph>
<glyph name="dieresis" format="2">
	<advance width="332"/>
	<unicode hex="00A8"/>
	<outline>
		<contour>
			<point x="40" y="710" type="move"/>
			<point x="111" y="710" type="line"/>
			<point x="118" y="674"/>
			<point x="104" y="631"/>
			<point x="76" y="602" type="curve"/>
		</contour>
		<contour>
			<point x="218" y="710" type="move"/>
			<point x="290" y="710" type="line"/>
			<point x="297" y="674"/>
			<point x="283" y="631"/>
			<point x="254" y="602" type="curve"/>
		</contour>
	</outline>
</glyph>
<glyph name="copyright" format="2">
	<advance width="793"/>
	<unicode hex="00A9"/>
	<outline>
		<contour>
			<point x="560" y="497" type="move"/>
			<point x="502" y="543"/>
			<point x="426" y="567"/>
			<point x="356" y="555" type="curve" smooth="yes"/>
			<point x="263" y="539"/>
			<point x="193" y="468"/>
			<point x="181" y="381" type="curve" smooth="yes"/>
			<point x="165" y="268"/>
			<point x="245" y="170"/>
			<point x="356" y="146" type="curve" smooth="yes"/>
			<point x="428" y="131"/>
			<point x="502" y="152"/>
			<point x="560" y="205" type="curve"/>
		</contour>
		<contour>
			<point x="368" y="701" type="curve" smooth="yes"/>
			<point x="584" y="717"/>
			<point x="764" y="538"/>
			<point x="747" y="322" type="curve" smooth="yes"/>
			<point x="732" y="128"/>
			<point x="560" y="-14"/>
			<point x="368" y="0" type="curve" smooth="yes"/>
			<point x="192" y="13"/>
			<point x="61" y="146"/>
			<point x="46" y="322" type="curve" smooth="yes"/>
			<point x="30" y="514"/>
			<point x="174" y="687"/>
		</contour>
	</outline>
</glyph>
<glyph name="guillemetleft" format="2">
	<advance width="545"/>
	<unicode hex="00AB"/>
	<outline>
		<contour>
			<point x="480" y="500" type="move"/>
			<point x="230" y="250" type="line"/>
			<point x="480" y="0" type="line"/>
		</contour>
		<contour>
			<point x="275" y="500" type="move"/>
			<point x="25" y="250" type="line"/>
			<point x="275" y="0" type="line"/>
		</contour>
	</outline>
</glyph>
<glyph name="logicalnot" format="2">
	<advance width="620"/>
	<unicode hex="00AC"/>
	<outline>
		<contour>
			<point x="60" y="265" type="move"/>
			<point x="560" y="265" type="line"/>
			<point x="560" y="115" type="line"/>
		</contour>
	</outline>
</glyph>
<glyph name="registered" format="2">
	<advance width="503"/>
	<unicode hex="00AE"/>
	<outline>
		<contour>
			<point x="200" y="385" type="move"/>
			<point x="186" y="391"/>
			<point x="177" y="405"/>
			<point x="177" y="418" type="curve" smooth="yes"/>
			<point x="177" y="604" type="line"/>
			<point x="255" y="604" type="line" smooth="yes"/>
			<point x="294" y="604"/>
			<point x="331" y="581"/>
			<point x="331" y="543" type="curve" smooth="yes"/>
			<point x="331" y="501"/>
			<point x="290" y="473"/>
			<point x="243" y="473" type="curve" smooth="yes"/>
			<point x="219" y="473"/>
			<point x="198" y="481"/>
			<point x="177" y="495" type="curve"/>
		</contour>
		<contour>
			<point x="243" y="473" type="move"/>
			<point x="259" y="434"/>
			<point x="292" y="401"/>
			<point x="331" y="385" type="curve"/>
		</contour>
		<contour>
			<point x="250" y="302" type="curve" smooth="yes"/>
			<point x="359" y="302"/>
			<point x="448" y="391"/>
			<point x="448" y="500" type="curve" smooth="yes"/>
			<point x="448" y="611"/>
			<point x="359" y="700"/>
			<point x="250" y="700" type="curve" smooth="yes"/>
			<point x="139" y="700"/>
			<point x="50" y="611"/>
			<point x="50" y="500" type="curve" smooth="yes"/>
			<point x="50" y="391"/>
			<point x="139" y="302"/>
		</contour>
	</outline>
</glyph>
<glyph name="degree" format="2">
	<advance width="340"/>
	<unicode hex="00B0"/>
	<outline>
		<contour>
			<point x="160" y="790" type="curve" smooth="yes"/>
			<point x="79" y="790"/>
			<point x="15" y="726"/>
			<point x="15" y="645" type="curve" smooth="yes"/>
			<point x="15" y="563"/>
			<point x="79" y="500"/>
			<point x="160" y="500" type="curve" smooth="yes"/>
			<point x="242" y="500"/>
			<point x="305" y="563"/>
			<point x="305" y="645" type="curve" smooth="yes"/>
			<point x="305" y="726"/>
			<point x="242" y="790"/>
		</contour>
	</outline>
</glyph>
<glyph name="plusminus" format="2">
	<advance width="538"/>
	<unicode hex="00B1"/>
	<outline>
		<contour>
			<point x="259" y="600" type="move"/>
			<point x="259" y="172" type="line"/>
		</contour>
		<contour>
			<point x="45" y="386" type="move"/>
			<point x="473" y="386" type="line"/>
		</contour>
		<contour>
			<point x="45" y="80" type="move"/>
			<point x="473" y="80" type="line"/>
		</contour>
	</outline>
</glyph>
<glyph name="acute" format="2">
	<advance width="189"/>
	<unicode hex="00B4"/>
	<outline>
		<contour>
			<point x="111" y="710" type="move"/>
			<point x="147" y="710" type="line"/>
			<point x="161" y="646"/>
			<point x="104" y="596"/>
			<point x="40" y="603" type="curve"/>
		</contour>
	</outline>
</glyph>
<glyph name="paragraph" format="2">
	<advance width="415"/>
	<unicode hex="00B6"/>
	<outline>
		<contour>
			<point x="270" y="0" type="move"/>
			<point x="270" y="790" type="line"/>
			<point x="170" y="790"/>
			<point x="60" y="650"/>
			<point x="60" y="500" type="curve"/>
			<point x="157" y="500" type="line"/>
		</contour>
		<contour>
			<point x="340" y="0" type="move"/>
			<point x="340" y="790" type="line"/>
		</contour>
	</outline>
</glyph>
<glyph name="periodcentered" format="2">
	<advance width="271"/>
	<unicode hex="00B7"/>
	<outline>
		<contour>
			<point x="80" y="322" type="move"/>
			<point x="188" y="322" type="line"/>
			<point x="202" y="264"/>
			<point x="173" y="207"/>
			<point x="116" y="178" type="curve"/>
		</contour>
	</outline>
</glyph>
<glyph name="guillemetright" format="2">
	<advance width="545"/>
	<unicode hex="00BB"/>
	<outline>
		<contour>
			<point x="65" y="0" type="move"/>
			<point x="315" y="250" type="line"/>
			<point x="65" y="500" type="line"/>
		</contour>
		<contour>
			<point x="270" y="0" type="move"/>
			<point x="520" y="250" type="line"/>
			<point x="270" y="500" type="line"/>
		</contour>
	</outline>
</glyph>
<glyph name="questiondown" format="2">
	<advance width="530"/>
	<unicode hex="00BF"/>
	<outline>
		<contour>
			<point x="515" y="-147" type="move"/>
			<point x="472" y="-233"/>
			<point x="386" y="-290"/>
			<point x="289" y="-290" type="curve" smooth="yes"/>
			<point x="134" y="-290"/>
			<point x="19" y="-160"/>
			<point x="84" y="-39" type="curve" smooth="yes"/>
			<point x="142" y="69"/>
			<point x="394" y="47"/>
			<point x="371" y="213" type="curve" smooth="yes"/>
			<point x="366" y="249"/>
			<point x="335" y="277"/>
			<point x="299" y="284" type="curve"/>
		</contour>
		<contour>
			<point x="232" y="520" type="move"/>
			<point x="339" y="520" type="line"/>
			<point x="354" y="462"/>
			<point x="325" y="405"/>
			<point x="268" y="376" type="curve"/>
		</contour>
	</outline>
</glyph>
<glyph name="AE" format="2">
	<advance width="912"/>
	<unicode hex="00C6"/>
	<outline>
		<contour>
			<point x="35" y="0" type="move"/>
			<point x="56" y="21"/>
			<point x="78" y="42"/>
			<point x="91" y="70" type="curve" smooth="yes"/>
			<point x="152" y="203"/>
			<point x="71" y="350"/>
			<point x="105" y="490" type="curve" smooth="yes"/>
			<point x="134" y="607"/>
			<point x="231" y="700"/>
			<point x="350" y="700" type="curve" smooth="yes"/>
			<point x="490" y="700" type="line"/>
			<point x="770" y="700" type="line" smooth="yes"/>
			<point x="812" y="700"/>
			<point x="854" y="679"/>
			<point x="875" y="630" type="curve"/>
		</contour>
		<contour>
			<point x="490" y="700" type="move"/>
			<point x="490" y="0" type="line"/>
			<point x="770" y="0" type="line" smooth="yes"/>
			<point x="813" y="0"/>
			<point x="854" y="35"/>
			<point x="875" y="70" type="curve"/>
		</contour>
		<contour>
			<point x="105" y="280" type="move"/>
			<point x="490" y="280" type="line"/>
		</contour>
		<contour>
			<point x="490" y="350" type="move"/>
			<point x="805" y="350" type="line"/>
		</contour>
	</outline>
</glyph>
<glyph name="multiply" format="2">
	<advance width="538"/>
	<unicode hex="00D7"/>
	<outline>
		<contour>
			<point x="55" y="500" type="move"/>
			<point x="483" y="71" type="line"/>
		</contour>
		<contour>
			<point x="483" y="500" type="move"/>
			<point x="55" y="71" type="line"/>
		</contour>
	</outline>
</glyph>
<glyph name="Thorn" format="2">
	<advance width="605"/>
	<unicode hex="00DE"/>
	<outline>
		<contour>
			<point x="55" y="700" type="move"/>
			<point x="55" y="105" type="line" smooth="yes"/>
			<point x="55" y="63"/>
			<point x="83" y="21"/>
			<point x="125" y="0" type="curve"/>
		</contour>
		<contour>
			<point x="55" y="560" type="move"/>
			<point x="300" y="560" type="line" smooth="yes"/>
			<point x="426" y="560"/>
			<point x="545" y="483"/>
			<point x="545" y="364" type="curve" smooth="yes"/>
			<point x="545" y="231"/>
			<point x="412" y="140"/>
			<point x="265" y="140" type="curve" smooth="yes"/>
			<point x="188" y="140"/>
			<point x="118" y="168"/>
			<point x="55" y="210" type="curve"/>
		</contour>
	</outline>
</glyph>
<glyph name="germandbls" format="2">
	<advance width="512"/>
	<unicode hex="00DF"/>
	<outline>
		<contour>
			<point x="125" y="0" type="move"/>
			<point x="83" y="21"/>
			<point x="55" y="63"/>
			<point x="55" y="105" type="curve" smooth="yes"/>
			<point x="55" y="455" type="line" smooth="yes"/>
			<point x="55" y="595"/>
			<point x="113" y="700"/>
			<point x="237" y="700" type="curve" smooth="yes"/>
			<point x="321" y="700"/>
			<point x="402" y="651"/>
			<point x="405" y="560" type="curve" smooth="yes"/>
			<point x="408" y="462"/>
			<point x="307" y="392"/>
			<point x="195" y="385" type="curve"/>
			<point x="342" y="392"/>
			<point x="475" y="308"/>
			<point x="475" y="175" type="curve" smooth="yes"/>
			<point x="475" y="35"/>
			<point x="309" y="-48"/>
			<point x="195" y="35" type="curve"/>
		</contour>
	</outline>
</glyph>
<glyph name="ae" format="2">
	<advance width="929"/>
	<unicode hex="00E6"/>
	<outline>
		<contour>
			<point x="81" y="427" type="move"/>
			<point x="131" y="471"/>
			<point x="196" y="500"/>
			<point x="259" y="500" type="curve" smooth="yes"/>
			<point x="359" y="500"/>
			<point x="459" y="449"/>
			<point x="474" y="356" type="curve" smooth="yes"/>
			<point x="480" y="320"/>
			<point x="474" y="284"/>
			<point x="474" y="249" type="curve" smooth="yes"/>
			<point x="475" y="136"/>
			<point x="546" y="33"/>
			<point x="654" y="0" type="curve" smooth="yes"/>
			<point x="747" y="-28"/>
			<point x="846" y="0"/>
			<point x="904" y="72" type="curve"/>
		</contour>
		<contour>
			<point x="474" y="249" type="move"/>
			<point x="474" y="378"/>
			<point x="568" y="487"/>
			<point x="689" y="500" type="curve" smooth="yes"/>
			<point x="809" y="513"/>
			<point x="912" y="428"/>
			<point x="904" y="320" type="curve" smooth="yes"/>
			<point x="897" y="229"/>
			<point x="796" y="168"/>
			<point x="689" y="177" type="curve" smooth="yes"/>
			<point x="618" y="183"/>
			<point x="547" y="213"/>
			<point x="474" y="249" type="curve" smooth="yes"/>
			<point x="410" y="284"/>
			<point x="339" y="315"/>
			<point x="259" y="320" type="curve" smooth="yes"/>
			<point x="160" y="326"/>
			<point x="49" y="278"/>
			<point x="45" y="177" type="curve" smooth="yes"/>
			<point x="41" y="72"/>
			<point x="146" y="0"/>
			<point x="259" y="0" type="curve" smooth="yes"/>
			<point x="359" y="0"/>
			<point x="450" y="39"/>
			<point x="514" y="110" type="curve"/>
		</contour>
	</outline>
</glyph>
<glyph name="divide" format="2">
	<advance width="528"/>
	<unicode hex="00F7"/>
	<outline>
		<contour>
			<point x="45" y="250" type="move"/>
			<point x="473" y="250" type="line"/>
		</contour>
		<contour>
			<point x="196" y="510" type="move"/>
			<point x="304" y="510" type="line"/>
			<point x="318" y="452"/>
			<point x="289" y="395"/>
			<point x="232" y="366" type="curve"/>
		</contour>
		<contour>
			<point x="196" y="104" type="move"/>
			<point x="304" y="104" type="line"/>
			<point x="318" y="46"/>
			<point x="289" y="-11"/>
			<point x="232" y="-40" type="curve"/>
		</contour>
	</outline>
</glyph>
<glyph name="thorn" format="2">
	<advance width="654"/>
	<unicode hex="00FE"/>
	<outline>
		<contour>
			<point x="40" y="700" type="move"/>
			<point x="75" y="658"/>
			<point x="97" y="609"/>
			<point x="110" y="560" type="curve" smooth="yes"/>
			<point x="180" y="300"/>
			<point x="-8" y="19"/>
			<point x="125" y="-220" type="curve" smooth="yes"/>
			<point x="139" y="-245"/>
			<point x="159" y="-269"/>
			<point x="181" y="-290" type="curve"/>
		</contour>
		<contour>
			<point x="121" y="341" type="move"/>
			<point x="162" y="426"/>
			<point x="244" y="485"/>
			<point x="335" y="490" type="curve" smooth="yes"/>
			<point x="496" y="499"/>
			<point x="620" y="364"/>
			<point x="602" y="202" type="curve" smooth="yes"/>
			<point x="589" y="83"/>
			<point x="483" y="-9"/>
			<point x="356" y="-9" type="curve" smooth="yes"/>
			<point x="251" y="-9"/>
			<point x="145" y="40"/>
			<point x="89" y="132" type="curve"/>
		</contour>
	</outline>
</glyph>
<glyph name="Hbar" format="2">
	<advance width="740"/>
	<unicode hex="0126"/>
	<outline>
		<contour>
			<point x="55" y="500" type="move"/>
			<point x="685" y="500" type="line"/>
		</contour>
		<component base="H" xOffset="20"/>
	</outline>
</glyph>
<glyph name="Lslash" format="2">
	<advance width="560"/>
	<unicode hex="0141"/>
	<outline>
		<contour>
			<point x="55" y="700" type="move"/>
			<point x="104" y="672"/>
			<point x="125" y="616"/>
			<point x="125" y="560" type="curve" smooth="yes"/>
			<point x="125" y="0" type="line"/>
			<point x="475" y="0" type="line" smooth="yes"/>
			<point x="517" y="0"/>
			<point x="545" y="35"/>
			<point x="545" y="70" type="curve"/>
		</contour>
		<contour>
			<point x="55" y="280" type="move"/>
			<point x="300" y="385" type="line"/>
		</contour>
	</outline>
</glyph>
<glyph name="lslash" format="2">
	<advance width="189"/>
	<unicode hex="0142"/>
	<outline>
		<contour>
			<point x="-34" y="328" type="move"/>
			<point x="211" y="433" type="line"/>
		</contour>
		<component base="l"/>
	</outline>
</glyph>
<glyph name="Eng" format="2">
	<advance width="610"/>
	<unicode hex="014A"/>
	<outline>
		<contour>
			<point x="30" y="0" type="move"/>
			<point x="30" y="700" type="line"/>
			<point x="86" y="693"/>
			<point x="134" y="664"/>
			<point x="170" y="630" type="curve" smooth="yes"/>
			<point x="322" y="483"/>
			<point x="263" y="217"/>
			<point x="415" y="70" type="curve" smooth="yes"/>
			<point x="458" y="29"/>
			<point x="506" y="7"/>
			<point x="555" y="0" type="curve"/>
			<point x="555" y="700" type="line"/>
		</contour>
		<contour>
			<point x="555" y="0" type="move"/>
			<point x="541" y="-210"/>
			<point x="331" y="-343"/>
			<point x="135" y="-280" type="curve"/>
		</contour>
	</outline>
</glyph>
<glyph name="eng" format="2">
	<advance width="590"/>
	<unicode hex="014B"/>
	<outline>
		<contour>
			<point x="40" y="500" type="move"/>
			<point x="83" y="457"/>
			<point x="104" y="407"/>
			<point x="111" y="357" type="curve" smooth="yes"/>
			<point x="125" y="257"/>
			<point x="91" y="157"/>
			<point x="126" y="72" type="curve" smooth="yes"/>
			<point x="138" y="42"/>
			<point x="161" y="14"/>
			<point x="183" y="0" type="curve"/>
		</contour>
		<contour>
			<point x="111" y="357" type="move"/>
			<point x="154" y="436"/>
			<point x="233" y="500"/>
			<point x="326" y="500" type="curve" smooth="yes"/>
			<point x="440" y="500"/>
			<point x="540" y="429"/>
			<point x="540" y="321" type="curve" smooth="yes"/>
			<point x="540" y="186"/>
			<point x="559" y="50"/>
			<point x="525" y="-71" type="curve" smooth="yes"/>
			<point x="501" y="-156"/>
			<point x="461" y="-228"/>
			<point x="397" y="-286" type="curve"/>
		</contour>
	</outline>
</glyph>
<glyph name="OE" format="2">
	<advance width="1077"/>
	<unicode hex="0152"/>
	<outline>
		<contour>
			<point x="340" y="700" type="curve" smooth="yes"/>
			<point x="172" y="700"/>
			<point x="60" y="532"/>
			<point x="60" y="350" type="curve" smooth="yes"/>
			<point x="60" y="168"/>
			<point x="172" y="0"/>
			<point x="340" y="0" type="curve" smooth="yes"/>
			<point x="508" y="0"/>
			<point x="620" y="168"/>
			<point x="620" y="350" type="curve" smooth="yes"/>
			<point x="620" y="532"/>
			<point x="508" y="700"/>
		</contour>
		<contour>
			<point x="1040" y="630" type="move"/>
			<point x="1026" y="679"/>
			<point x="984" y="700"/>
			<point x="935" y="700" type="curve" smooth="yes"/>
			<point x="620" y="700" type="line"/>
			<point x="620" y="0" type="line"/>
			<point x="935" y="0" type="line" smooth="yes"/>
			<point x="984" y="0"/>
			<point x="1026" y="28"/>
			<point x="1040" y="70" type="curve"/>
		</contour>
		<contour>
			<point x="620" y="350" type="move"/>
			<point x="970" y="350" type="line"/>
		</contour>
	</outline>
</glyph>
<glyph name="oe" format="2">
	<advance width="1044"/>
	<unicode hex="0153"/>
	<outline>
		<contour>
			<point x="302" y="500" type="curve" smooth="yes"/>
			<point x="452" y="500"/>
			<point x="572" y="371"/>
			<point x="552" y="214" type="curve" smooth="yes"/>
			<point x="536" y="92"/>
			<point x="423" y="0"/>
			<point x="302" y="0" type="curve" smooth="yes"/>
			<point x="173" y="0"/>
			<point x="66" y="93"/>
			<point x="52" y="214" type="curve" smooth="yes"/>
			<point x="35" y="364"/>
			<point x="152" y="500"/>
		</contour>
		<contour>
			<point x="1019" y="72" type="move"/>
			<point x="955" y="7"/>
			<point x="863" y="-20"/>
			<point x="770" y="0" type="curve" smooth="yes"/>
			<point x="633" y="29"/>
			<point x="543" y="150"/>
			<point x="555" y="286" type="curve" smooth="yes"/>
			<point x="566" y="415"/>
			<point x="688" y="500"/>
			<point x="817" y="500" type="curve" smooth="yes"/>
			<point x="924" y="500"/>
			<point x="1024" y="436"/>
			<point x="1019" y="343" type="curve" smooth="yes"/>
			<point x="1014" y="243"/>
			<point x="905" y="203"/>
			<point x="791" y="214" type="curve" smooth="yes"/>
			<point x="712" y="222"/>
			<point x="634" y="242"/>
			<point x="555" y="286" type="curve"/>
		</contour>
	</outline>
</glyph>
<glyph name="Tbar" format="2">
	<advance width="590"/>
	<unicode hex="0166"/>
	<outline>
		<contour>
			<point x="115" y="385" type="move"/>
			<point x="500" y="385" type="line"/>
		</contour>
		<component base="T"/>
	</outline>
</glyph>
<glyph name="tbar" format="2">
	<advance width="402"/>
	<unicode hex="0167"/>
	<outline>
		<contour>
			<point x="25" y="285" type="move"/>
			<point x="280" y="285" type="line"/>
		</contour>
		<component base="t"/>
	</outline>
</glyph>
<glyph name="circumflex" format="2">
	<advance width="294"/>
	<unicode hex="02C6"/>
	<outline>
		<contour>
			<point x="40" y="603" type="move"/>
			<point x="147" y="710" type="line"/>
			<point x="154" y="660"/>
			<point x="197" y="617"/>
			<point x="254" y="603" type="curve"/>
		</contour>
	</outline>
</glyph>
<glyph name="caron" format="2">
	<advance width="294"/>
	<unicode hex="02C7"/>
	<outline>
		<contour>
			<point x="254" y="710" type="move"/>
			<point x="197" y="696"/>
			<point x="154" y="653"/>
			<point x="147" y="603" type="curve"/>
			<point x="40" y="710" type="line"/>
		</contour>
	</outline>
</glyph>
<glyph name="dotaccent" format="2">
	<advance width="154"/>
	<unicode hex="02D9"/>
	<outline>
		<contour>
			<point x="40" y="710" type="move"/>
			<point x="112" y="710" type="line"/>
			<point x="119" y="674"/>
			<point x="105" y="631"/>
			<point x="76" y="602" type="curve"/>
		</contour>
	</outline>
</glyph>
<glyph name="ring" format="2">
	<advance width="188"/>
	<unicode hex="02DA"/>
	<outline>
		<contour>
			<point x="94" y="710" type="curve" smooth="yes"/>
			<point x="65" y="710"/>
			<point x="40" y="685"/>
			<point x="40" y="656" type="curve" smooth="yes"/>
			<point x="40" y="627"/>
			<point x="65" y="602"/>
			<point x="94" y="602" type="curve" smooth="yes"/>
			<point x="123" y="602"/>
			<point x="148" y="627"/>
			<point x="148" y="656" type="curve" smooth="yes"/>
			<point x="148" y="685"/>
			<point x="123" y="710"/>
		</contour>
	</outline>
</glyph>
<glyph name="ogonek" format="2">
	<advance width="229"/>
	<unicode hex="02DB"/>
	<outline>
		<contour>
			<point x="116" y="0" type="move"/>
			<point x="80" y="-30"/>
			<point x="54" y="-63"/>
			<point x="44" y="-109" type="curve" smooth="yes"/>
			<point x="35" y="-152"/>
			<point x="42" y="-196"/>
			<point x="80" y="-216" type="curve" smooth="yes"/>
			<point x="137" y="-246"/>
			<point x="195" y="-201"/>
			<point x="189" y="-144" type="curve"/>
		</contour>
	</outline>
</glyph>
<glyph name="hungarumlaut" format="2">
	<advance width="319"/>
	<unicode hex="02DD"/>
	<outline>
		<contour>
			<point x="111" y="710" type="move"/>
			<point x="147" y="710" type="line"/>
			<point x="161" y="646"/>
			<point x="104" y="596"/>
			<point x="40" y="603" type="curve"/>
		</contour>
		<contour>
			<point x="241" y="710" type="move"/>
			<point x="277" y="710" type="line"/>
			<point x="291" y="646"/>
			<point x="234" y="596"/>
			<point x="170" y="603" type="curve"/>
		</contour>
	</outline>
</glyph>
<glyph name="acutecomb" format="2">
	<advance width="189"/>
	<unicode hex="0301"/>
	<outline>
		<contour>
			<point x="111" y="710" type="move"/>
			<point x="147" y="710" type="line"/>
			<point x="161" y="646"/>
			<point x="104" y="596"/>
			<point x="40" y="603" type="curve"/>
		</contour>
	</outline>
</glyph>
<glyph name="tildecomb" format="2">
	<advance width="294"/>
	<unicode hex="0303"/>
	<outline>
		<contour>
			<point x="40" y="617" type="move"/>
			<point x="40" y="660"/>
			<point x="76" y="688"/>
			<point x="111" y="674" type="curve" smooth="yes"/>
			<point x="140" y="660"/>
			<point x="154" y="627"/>
			<point x="183" y="617" type="curve" smooth="yes"/>
			<point x="217" y="605"/>
			<point x="254" y="638"/>
			<point x="254" y="674" type="curve"/>
		</contour>
	</outline>
</glyph>
<glyph name="macroncomb" format="2">
	<advance width="294"/>
	<unicode hex="0304"/>
	<outline>
		<contour>
			<point x="40" y="617" type="move"/>
			<point x="254" y="617" type="line"/>
		</contour>
	</outline>
</glyph>
<glyph name="brevecomb" format="2">
	<advance width="294"/>
	<unicode hex="0306"/>
	<outline>
		<contour>
			<point x="40" y="710" type="move"/>
			<point x="40" y="653"/>
			<point x="90" y="602"/>
			<point x="147" y="602" type="curve" smooth="yes"/>
			<point x="204" y="602"/>
			<point x="254" y="653"/>
			<point x="254" y="710" type="curve"/>
		</contour>
	</outline>
</glyph>
<glyph name="dotaccentcomb" format="2">
	<advance width="154"/>
	<unicode hex="0307"/>
	<outline>
		<contour>
			<point x="40" y="700" type="move"/>
			<point x="112" y="700" type="line"/>
			<point x="119" y="664"/>
			<point x="105" y="621"/>
			<point x="76" y="592" type="curve"/>
		</contour>
	</outline>
</glyph>
<glyph name="dieresiscomb" format="2">
	<advance width="332"/>
	<unicode hex="0308"/>
	<outline>
		<contour>
			<point x="40" y="700" type="move"/>
			<point x="111" y="700" type="line"/>
			<point x="118" y="664"/>
			<point x="104" y="621"/>
			<point x="76" y="592" type="curve"/>
		</contour>
		<contour>
			<point x="218" y="700" type="move"/>
			<point x="290" y="700" type="line"/>
			<point x="297" y="664"/>
			<point x="283" y="621"/>
			<point x="254" y="592" type="curve"/>
		</contour>
	</outline>
</glyph>
<glyph name="ringcomb" format="2">
	<advance width="188"/>
	<unicode hex="030A"/>
	<outline>
		<contour>
			<point x="94" y="710" type="curve" smooth="yes"/>
			<point x="65" y="710"/>
			<point x="40" y="685"/>
			<point x="40" y="656" type="curve" smooth="yes"/>
			<point x="40" y="627"/>
			<point x="65" y="602"/>
			<point x="94" y="602" type="curve" smooth="yes"/>
			<point x="123" y="602"/>
			<point x="148" y="627"/>
			<point x="148" y="656" type="curve" smooth="yes"/>
			<point x="148" y="685"/>
			<point x="123" y="710"/>
		</contour>
	</outline>
</glyph>
<glyph name="hungarumlautcomb" format="2">
	<advance width="319"/>
	<unicode hex="030B"/>
	<outline>
		<contour>
			<point x="111" y="710" type="move"/>
			<point x="147" y="710" type="line"/>
			<point x="161" y="646"/>
			<point x="104" y="596"/>
			<point x="40" y="603" type="curve"/>
		</contour>
		<contour>
			<point x="241" y="710" type="move"/>
			<point x="277" y="710" type="line"/>
			<point x="291" y="646"/>
			<point x="234" y="596"/>
			<point x="170" y="603" type="curve"/>
		</contour>
	</outline>
</glyph>
<glyph name="caroncomb" format="2">
	<advance width="294"/>
	<unicode hex="030C"/>
	<outline>
		<contour>
			<point x="254" y="710" type="move"/>
			<point x="197" y="696"/>
			<point x="154" y="653"/>
			<point x="147" y="603" type="curve"/>
			<point x="40" y="710" type="line"/>
		</contour>
	</outline>
</glyph>
<glyph name="commaturnedabovecomb" format="2">
	<advance width="154"/>
	<unicode hex="0312"/>
	<outline>
		<contour>
			<point x="115" y="570" type="move"/>
			<point x="43" y="570" type="line"/>
			<point x="36" y="627"/>
			<point x="50" y="677"/>
			<point x="79" y="713" type="curve"/>
		</contour>
	</outline>
</glyph>
<glyph name="commaaccentcomb" format="2">
	<advance width="154"/>
	<unicode hex="0326"/>
	<outline>
		<contour>
			<point x="40" y="-81" type="move"/>
			<point x="112" y="-81" type="line"/>
			<point x="119" y="-138"/>
			<point x="105" y="-188"/>
			<point x="76" y="-224" type="curve"/>
		</contour>
	</outline>
</glyph>
<glyph name="cedillacomb" format="2">
	<advance width="189"/>
	<unicode hex="0327"/>
	<outline>
		<contour>
			<point x="77" y="0" type="move"/>
			<point x="40" y="-72" type="line"/>
			<point x="67" y="-61"/>
			<point x="91" y="-61"/>
			<point x="113" y="-72" type="curve" smooth="yes"/>
			<point x="138" y="-85"/>
			<point x="152" y="-115"/>
			<point x="148" y="-144" type="curve" smooth="yes"/>
			<point x="142" y="-192"/>
			<point x="91" y="-225"/>
			<point x="40" y="-215" type="curve"/>
		</contour>
	</outline>
</glyph>
<glyph name="Germandbls" format="2">
	<advance width="551"/>
	<unicode hex="1E9E"/>
	<outline>
		<contour>
			<point x="125" y="0" type="move"/>
			<point x="83" y="14"/>
			<point x="55" y="63"/>
			<point x="55" y="105" type="curve" smooth="yes"/>
			<point x="55" y="490" type="line" smooth="yes"/>
			<point x="55" y="604"/>
			<point x="160" y="690"/>
			<point x="265" y="700" type="curve" smooth="yes"/>
			<point x="343" y="707"/>
			<point x="426" y="686"/>
			<point x="475" y="630" type="curve"/>
			<point x="265" y="420" type="line"/>
			<point x="384" y="434"/>
			<point x="486" y="363"/>
			<point x="510" y="245" type="curve" smooth="yes"/>
			<point x="534" y="126"/>
			<point x="454" y="0"/>
			<point x="335" y="0" type="curve" smooth="yes"/>
			<point x="279" y="0"/>
			<point x="230" y="28"/>
			<point x="195" y="70" type="curve"/>
		</contour>
	</outline>
</glyph>
<glyph name="endash" format="2">
	<advance width="495"/>
	<unicode hex="2013"/>
	<outline>
		<contour>
			<point x="60" y="265" type="move"/>
			<point x="435" y="265" type="line"/>
		</contour>
	</outline>
</glyph>
<glyph name="emdash" format="2">
	<advance width="620"/>
	<unicode hex="2014"/>
	<outline>
		<contour>
			<point x="60" y="265" type="move"/>
			<point x="560" y="265" type="line"/>
		</contour>
	</outline>
</glyph>
<glyph name="quoteleft" format="2">
	<advance width="277"/>
	<unicode hex="2018"/>
	<outline>
		<contour>
			<point x="192" y="500" type="move"/>
			<point x="84" y="500" type="line"/>
			<point x="70" y="610"/>
			<point x="91" y="711"/>
			<point x="156" y="790" type="curve"/>
		</contour>
	</outline>
</glyph>
<glyph name="quoteright" format="2">
	<advance width="277"/>
	<unicode hex="2019"/>
	<outline>
		<contour>
			<point x="85" y="790" type="move"/>
			<point x="193" y="790" type="line"/>
			<point x="207" y="680"/>
			<point x="186" y="579"/>
			<point x="121" y="500" type="curve"/>
		</contour>
	</outline>
</glyph>
<glyph name="quotedblleft" format="2">
	<advance width="479"/>
	<unicode hex="201C"/>
	<outline>
		<contour>
			<point x="394" y="500" type="move"/>
			<point x="286" y="500" type="line"/>
			<point x="272" y="610"/>
			<point x="293" y="711"/>
			<point x="358" y="790" type="curve"/>
		</contour>
		<contour>
			<point x="192" y="500" type="move"/>
			<point x="84" y="500" type="line"/>
			<point x="70" y="610"/>
			<point x="91" y="711"/>
			<point x="156" y="790" type="curve"/>
		</contour>
	</outline>
</glyph>
<glyph name="quotedblright" format="2">
	<advance width="479"/>
	<unicode hex="201D"/>
	<outline>
		<contour>
			<point x="85" y="790" type="move"/>
			<point x="193" y="790" type="line"/>
			<point x="207" y="680"/>
			<point x="186" y="579"/>
			<point x="121" y="500" type="curve"/>
		</contour>
		<contour>
			<point x="287" y="790" type="move"/>
			<point x="395" y="790" type="line"/>
			<point x="409" y="680"/>
			<point x="388" y="579"/>
			<point x="323" y="500" type="curve"/>
		</contour>
	</outline>
</glyph>
<glyph name="dagger" format="2">
	<advance width="418"/>
	<unicode hex="2020"/>
	<outline>
		<contour>
			<point x="209" y="790" type="move"/>
			<point x="209" y="362" type="line"/>
		</contour>
		<contour>
			<point x="45" y="640" type="move"/>
			<point x="373" y="640" type="line"/>
		</contour>
	</outline>
</glyph>
<glyph name="daggerdbl" format="2">
	<advance width="418"/>
	<unicode hex="2021"/>
	<outline>
		<contour>
			<point x="209" y="790" type="move"/>
			<point x="209" y="362" type="line"/>
		</contour>
		<contour>
			<point x="45" y="640" type="move"/>
			<point x="373" y="640" type="line"/>
		</contour>
		<contour>
			<point x="45" y="512" type="move"/>
			<point x="373" y="512" type="line"/>
		</contour>
	</outline>
</glyph>
<glyph name="bullet" format="2">
	<advance width="298"/>
	<unicode hex="2022"/>
	<outline>
		<contour>
			<point x="60" y="420" type="move"/>
			<point x="235" y="420" type="line"/>
			<point x="249" y="336"/>
			<point x="207" y="252"/>
			<point x="130" y="210" type="curve"/>
		</contour>
	</outline>
</glyph>
<glyph name="perthousand" format="2">
	<advance width="813"/>
	<unicode hex="2030"/>
	<outline>
		<contour>
			<point x="45" y="0" type="move"/>
			<point x="495" y="700" type="line"/>
		</contour>
		<contour>
			<point x="154" y="700" type="curve" smooth="yes"/>
			<point x="85" y="700"/>
			<point x="45" y="626"/>
			<point x="45" y="545" type="curve" smooth="yes"/>
			<point x="45" y="467"/>
			<point x="85" y="389"/>
			<point x="154" y="389" type="curve" smooth="yes"/>
			<point x="226" y="389"/>
			<point x="263" y="467"/>
			<point x="263" y="545" type="curve" smooth="yes"/>
			<point x="263" y="626"/>
			<point x="226" y="700"/>
		</contour>
		<contour>
			<point x="386" y="311" type="curve" smooth="yes"/>
			<point x="317" y="311"/>
			<point x="277" y="237"/>
			<point x="277" y="156" type="curve" smooth="yes"/>
			<point x="277" y="78"/>
			<point x="317" y="0"/>
			<point x="386" y="0" type="curve" smooth="yes"/>
			<point x="458" y="0"/>
			<point x="495" y="78"/>
			<point x="495" y="156" type="curve" smooth="yes"/>
			<point x="495" y="237"/>
			<point x="458" y="311"/>
		</contour>
		<contour>
			<point x="654" y="311" type="curve" smooth="yes"/>
			<point x="585" y="311"/>
			<point x="545" y="237"/>
			<point x="545" y="156" type="curve" smooth="yes"/>
			<point x="545" y="78"/>
			<point x="585" y="0"/>
			<point x="654" y="0" type="curve" smooth="yes"/>
			<point x="726" y="0"/>
			<point x="763" y="78"/>
			<point x="763" y="156" type="curve" smooth="yes"/>
			<point x="763" y="237"/>
			<point x="726" y="311"/>
		</contour>
	</outline>
</glyph>
<glyph name="guilsinglleft" format="2">
	<advance width="340"/>
	<unicode hex="2039"/>
	<outline>
		<contour>
			<point x="275" y="500" type="move"/>
			<point x="25" y="250" type="line"/>
			<point x="275" y="0" type="line"/>
		</contour>
	</outline>
</glyph>
<glyph name="guilsinglright" format="2">
	<advance width="340"/>
	<unicode hex="203A"/>
	<outline>
		<contour>
			<point x="65" y="0" type="move"/>
			<point x="315" y="250" type="line"/>
			<point x="65" y="500" type="line"/>
		</contour>
	</outline>
</glyph>
<glyph name="fraction" format="2">
	<advance width="585"/>
	<unicode hex="2044"/>
	<outline>
		<contour>
			<point x="65" y="0" type="move"/>
			<point x="515" y="700" type="line"/>
		</contour>
	</outline>
</glyph>
<glyph name="euro" format="2">
	<advance width="637"/>
	<unicode hex="20AC"/>
	<outline>
		<contour>
			<point x="620" y="630" type="move"/>
			<point x="557" y="686"/>
			<point x="480" y="705"/>
			<point x="410" y="700" type="curve" smooth="yes"/>
			<point x="244" y="688"/>
			<point x="130" y="525"/>
			<point x="130" y="350" type="curve" smooth="yes"/>
			<point x="130" y="182"/>
			<point x="242" y="18"/>
			<point x="410" y="0" type="curve" smooth="yes"/>
			<point x="480" y="-7"/>
			<point x="557" y="21"/>
			<point x="620" y="70" type="curve"/>
		</contour>
		<contour>
			<point x="60" y="455" type="move"/>
			<point x="550" y="455" type="line"/>
		</contour>
		<contour>
			<point x="60" y="280" type="move"/>
			<point x="550" y="280" type="line"/>
		</contour>
	</outline>
</glyph>
<glyph name="leftArrow" format="2">
	<advance width="780"/>
	<unicode hex="2190"/>
	<outline>
		<contour>
			<point x="745" y="350" type="move"/>
			<point x="45" y="350" type="line"/>
			<point x="198" y="382"/>
			<point x="331" y="471"/>
			<point x="427" y="605" type="curve"/>
		</contour>
		<contour>
			<point x="45" y="350" type="move"/>
			<point x="198" y="312"/>
			<point x="331" y="223"/>
			<point x="427" y="96" type="curve"/>
		</contour>
	</outline>
</glyph>
<glyph name="upArrow" format="2">
	<advance width="589"/>
	<unicode hex="2191"/>
	<outline>
		<contour>
			<point x="35" y="318" type="move"/>
			<point x="169" y="414"/>
			<point x="258" y="547"/>
			<point x="290" y="700" type="curve"/>
			<point x="290" y="0" type="line"/>
		</contour>
		<contour>
			<point x="544" y="318" type="move"/>
			<point x="417" y="414"/>
			<point x="328" y="547"/>
			<point x="290" y="700" type="curve"/>
		</contour>
	</outline>
</glyph>
<glyph name="rightArrow" format="2">
	<advance width="780"/>
	<unicode hex="2192"/>
	<outline>
		<contour>
			<point x="353" y="605" type="move"/>
			<point x="449" y="471"/>
			<point x="582" y="382"/>
			<point x="735" y="350" type="curve"/>
			<point x="35" y="350" type="line"/>
		</contour>
		<contour>
			<point x="353" y="96" type="move"/>
			<point x="449" y="223"/>
			<point x="582" y="312"/>
			<point x="735" y="350" type="curve"/>
		</contour>
	</outline>
</glyph>
<glyph name="downArrow" format="2">
	<advance width="589"/>
	<unicode hex="2193"/>
	<outline>
		<contour>
			<point x="290" y="700" type="move"/>
			<point x="290" y="0" type="line"/>
			<point x="258" y="153"/>
			<point x="169" y="286"/>
			<point x="35" y="382" type="curve"/>
		</contour>
		<contour>
			<point x="290" y="0" type="move"/>
			<point x="328" y="153"/>
			<point x="417" y="286"/>
			<point x="544" y="382" type="curve"/>
		</contour>
	</outline>
</glyph>
<glyph name="leftRightArrow" format="2">
	<advance width="790"/>
	<unicode hex="2194"/>
	<outline>
		<contour>
			<point x="490" y="605" type="move"/>
			<point x="554" y="497"/>
			<point x="643" y="408"/>
			<point x="745" y="350" type="curve"/>
			<point x="45" y="350" type="line"/>
			<point x="153" y="408"/>
			<point x="242" y="497"/>
			<point x="300" y="605" type="curve"/>
		</contour>
		<contour>
			<point x="490" y="96" type="move"/>
			<point x="554" y="198"/>
			<point x="643" y="287"/>
			<point x="745" y="350" type="curve"/>
		</contour>
		<contour>
			<point x="300" y="96" type="move"/>
			<point x="242" y="198"/>
			<point x="153" y="287"/>
			<point x="45" y="350" type="curve"/>
		</contour>
	</outline>
</glyph>
<glyph name="upDownArrow" format="2">
	<advance width="599"/>
	<unicode hex="2195"/>
	<outline>
		<contour>
			<point x="45" y="445" type="move"/>
			<point x="153" y="509"/>
			<point x="242" y="598"/>
			<point x="300" y="700" type="curve"/>
			<point x="300" y="0" type="line"/>
			<point x="242" y="108"/>
			<point x="153" y="197"/>
			<point x="45" y="255" type="curve"/>
		</contour>
		<contour>
			<point x="554" y="445" type="move"/>
			<point x="452" y="509"/>
			<point x="363" y="598"/>
			<point x="300" y="700" type="curve"/>
		</contour>
		<contour>
			<point x="554" y="255" type="move"/>
			<point x="452" y="197"/>
			<point x="363" y="108"/>
			<point x="300" y="0" type="curve"/>
		</contour>
	</outline>
</glyph>
<glyph name="northWestArrow" format="2">
	<advance width="600"/>
	<unicode hex="2196"/>
	<outline>
		<contour>
			<point x="555" y="95" type="move"/>
			<point x="60" y="590" type="line"/>
			<point x="191" y="504"/>
			<point x="348" y="473"/>
			<point x="510" y="500" type="curve"/>
		</contour>
		<contour>
			<point x="60" y="590" type="move"/>
			<point x="141" y="455"/>
			<point x="172" y="298"/>
			<point x="150" y="140" type="curve"/>
		</contour>
	</outline>
</glyph>
<glyph name="northEastArrow" format="2">
	<advance width="600"/>
	<unicode hex="2197"/>
	<outline>
		<contour>
			<point x="90" y="500" type="move"/>
			<point x="252" y="473"/>
			<point x="409" y="504"/>
			<point x="540" y="590" type="curve"/>
			<point x="45" y="95" type="line"/>
		</contour>
		<contour>
			<point x="450" y="140" type="move"/>
			<point x="428" y="298"/>
			<point x="459" y="455"/>
			<point x="540" y="590" type="curve"/>
		</contour>
	</outline>
</glyph>
<glyph name="southEastArrow" format="2">
	<advance width="600"/>
	<unicode hex="2198"/>
	<outline>
		<contour>
			<point x="450" y="500" type="move"/>
			<point x="424" y="337"/>
			<point x="455" y="180"/>
			<point x="540" y="49" type="curve"/>
			<point x="45" y="544" type="line"/>
		</contour>
		<contour>
			<point x="91" y="140" type="move"/>
			<point x="248" y="162"/>
			<point x="405" y="131"/>
			<point x="540" y="49" type="curve"/>
		</contour>
	</outline>
</glyph>
<glyph name="southWestArrow" format="2">
	<advance width="575"/>
	<unicode hex="2199"/>
	<outline>
		<contour>
			<point x="540" y="544" type="move"/>
			<point x="45" y="49" type="line"/>
			<point x="130" y="180"/>
			<point x="161" y="337"/>
			<point x="135" y="500" type="curve"/>
		</contour>
		<contour>
			<point x="45" y="49" type="move"/>
			<point x="180" y="131"/>
			<point x="337" y="162"/>
			<point x="494" y="140" type="curve"/>
		</contour>
	</outline>
</glyph>
<glyph name="partialdiff" format="2">
	<advance width="557"/>
	<unicode hex="2202"/>
	<outline>
		<contour>
			<point x="481" y="199" type="move"/>
			<point x="472" y="308"/>
			<point x="388" y="394"/>
			<point x="278" y="414" type="curve" smooth="yes"/>
			<point x="174" y="432"/>
			<point x="73" y="378"/>
			<point x="41" y="277" type="curve" smooth="yes"/>
			<point x="1" y="156"/>
			<point x="74" y="22"/>
			<point x="205" y="0" type="curve" smooth="yes"/>
			<point x="350" y="-26"/>
			<point x="472" y="108"/>
			<point x="501" y="267" type="curve" smooth="yes"/>
			<point x="530" y="433"/>
			<point x="509" y="621"/>
			<point x="361" y="683" type="curve" smooth="yes"/>
			<point x="287" y="714"/>
			<point x="201" y="704"/>
			<point x="142" y="651" type="curve"/>
		</contour>
	</outline>
</glyph>
<glyph name="emptyset" format="2">
	<advance width="564"/>
	<unicode hex="2205"/>
	<outline>
		<contour>
			<point x="282" y="500" type="curve" smooth="yes"/>
			<point x="432" y="501"/>
			<point x="552" y="371"/>
			<point x="532" y="214" type="curve" smooth="yes"/>
			<point x="516" y="92"/>
			<point x="403" y="0"/>
			<point x="282" y="0" type="curve" smooth="yes"/>
			<point x="153" y="0"/>
			<point x="48" y="93"/>
			<point x="32" y="214" type="curve" smooth="yes"/>
			<point x="12" y="364"/>
			<point x="132" y="499"/>
		</contour>
		<contour>
			<point x="32" y="0" type="move"/>
			<point x="532" y="500" type="line"/>
		</contour>
	</outline>
</glyph>
<glyph name="product" format="2">
	<advance width="580"/>
	<unicode hex="220F"/>
	<outline>
		<contour>
			<point x="170" y="-90" type="move"/>
			<point x="170" y="700" type="line"/>
		</contour>
		<contour>
			<point x="410" y="-90" type="move"/>
			<point x="410" y="700" type="line"/>
		</contour>
		<contour>
			<point x="40" y="700" type="move"/>
			<point x="540" y="700" type="line"/>
		</contour>
	</outline>
</glyph>
<glyph name="summation" format="2">
	<advance width="495"/>
	<unicode hex="2211"/>
	<outline>
		<contour>
			<point x="440" y="-90" type="move"/>
			<point x="40" y="-90" type="line"/>
			<point x="240" y="305" type="line"/>
			<point x="40" y="700" type="line"/>
			<point x="440" y="700" type="line"/>
		</contour>
	</outline>
</glyph>
<glyph name="minus" format="2">
	<advance width="528"/>
	<unicode hex="2212"/>
	<outline>
		<contour>
			<point x="45" y="250" type="move"/>
			<point x="473" y="250" type="line"/>
		</contour>
	</outline>
</glyph>
<glyph name="radical" format="2">
	<advance width="538"/>
	<unicode hex="221A"/>
	<outline>
		<contour>
			<point x="25" y="0" type="move"/>
			<point x="175" y="-290" type="line"/>
			<point x="373" y="790" type="line"/>
			<point x="523" y="790" type="line"/>
		</contour>
	</outline>
</glyph>
<glyph name="infinity" format="2">
	<advance width="957"/>
	<unicode hex="221E"/>
	<outline>
		<contour>
			<point x="259" y="428" type="curve" smooth="yes"/>
			<point x="152" y="450"/>
			<point x="45" y="364"/>
			<point x="45" y="250" type="curve" smooth="yes"/>
			<point x="45" y="143"/>
			<point x="152" y="55"/>
			<point x="259" y="71" type="curve" smooth="yes"/>
			<point x="359" y="86"/>
			<point x="416" y="171"/>
			<point x="473" y="250" type="curve" smooth="yes"/>
			<point x="531" y="336"/>
			<point x="595" y="414"/>
			<point x="688" y="428" type="curve" smooth="yes"/>
			<point x="802" y="450"/>
			<point x="902" y="364"/>
			<point x="902" y="250" type="curve" smooth="yes"/>
			<point x="902" y="143"/>
			<point x="802" y="57"/>
			<point x="688" y="71" type="curve" smooth="yes"/>
			<point x="595" y="86"/>
			<point x="531" y="171"/>
			<point x="473" y="250" type="curve" smooth="yes"/>
			<point x="416" y="336"/>
			<point x="358" y="408"/>
		</contour>
	</outline>
</glyph>
<glyph name="integral" format="2">
	<advance width="253"/>
	<unicode hex="222B"/>
	<outline>
		<contour>
			<point x="258" y="700" type="move"/>
			<point x="240" y="693"/>
			<point x="216" y="684"/>
			<point x="197" y="669" type="curve" smooth="yes"/>
			<point x="150" y="632"/>
			<point x="143" y="572"/>
			<point x="137" y="517" type="curve" smooth="yes"/>
			<point x="118" y="316"/>
			<point x="191" y="90"/>
			<point x="54" y="-60" type="curve" smooth="yes"/>
			<point x="43" y="-72"/>
			<point x="27" y="-84"/>
			<point x="15" y="-90" type="curve"/>
		</contour>
	</outline>
</glyph>
<glyph name="approxequal" format="2">
	<advance width="559"/>
	<unicode hex="2248"/>
	<outline>
		<contour>
			<point x="55" y="431" type="move"/>
			<point x="123" y="462"/>
			<point x="201" y="460"/>
			<point x="269" y="429" type="curve" smooth="yes"/>
			<point x="337" y="398"/>
			<point x="416" y="399"/>
			<point x="484" y="431" type="curve"/>
		</contour>
		<contour>
			<point x="55" y="142" type="move"/>
			<point x="123" y="174"/>
			<point x="201" y="175"/>
			<point x="269" y="144" type="curve" smooth="yes"/>
			<point x="337" y="113"/>
			<point x="416" y="110"/>
			<point x="484" y="142" type="curve"/>
		</contour>
	</outline>
</glyph>
<glyph name="notequal" format="2">
	<advance width="558"/>
	<unicode hex="2260"/>
	<outline>
		<contour>
			<point x="55" y="428" type="move"/>
			<point x="483" y="428" type="line"/>
		</contour>
		<contour>
			<point x="55" y="143" type="move"/>
			<point x="483" y="143" type="line"/>
		</contour>
		<contour>
			<point x="126" y="0" type="move"/>
			<point x="412" y="571" type="line"/>
		</contour>
	</outline>
</glyph>
<glyph name="lessequal" format="2">
	<advance width="518"/>
	<unicode hex="2264"/>
	<outline>
		<contour>
			<point x="463" y="71" type="move"/>
			<point x="35" y="286" type="line"/>
			<point x="463" y="500" type="line"/>
		</contour>
		<contour>
			<point x="463" y="0" type="move"/>
			<point x="35" y="0" type="line"/>
		</contour>
	</outline>
</glyph>
<glyph name="greaterequal" format="2">
	<advance width="518"/>
	<unicode hex="2265"/>
	<outline>
		<contour>
			<point x="55" y="500" type="move"/>
			<point x="483" y="286" type="line"/>
			<point x="55" y="71" type="line"/>
		</contour>
		<contour>
			<point x="55" y="0" type="move"/>
			<point x="483" y="0" type="line"/>
		</contour>
	</outline>
</glyph>
<glyph name="lozenge" format="2">
	<advance width="515"/>
	<unicode hex="25CA"/>
	<outline>
		<contour>
			<point x="258" y="700" type="line"/>
			<point x="480" y="350" type="line"/>
			<point x="258" y="0" type="line"/>
			<point x="35" y="350" type="line"/>
		</contour>
	</outline>
</glyph>
